<svg width="64" height="64" viewBox="0 0 24 24" xmlns="http://www.w3.org/2000/svg"><path fill="#f4b518" fill-rule="evenodd" d="M6.775 5.25h10.45c.816 0 1.474 0 2.007.044.55.045 1.031.14 1.477.368.7.359 1.27.929 1.629 1.629.228.446.323.928.368 1.477.044.533.044 1.191.044 2.007v.119c.001.338.002.698-.128 1.02a1.75 1.75 0 01-.526.706 1.633 1.633 0 01-.347.21c-.003 1.612-.023 3.24-.168 4.636-.085.82-.215 1.589-.422 2.244-.203.646-.504 1.256-.979 1.679-.823.732-1.86 1.055-3.153 1.21-1.27.151-2.898.151-4.976.151h-.102c-2.078 0-3.706 0-4.976-.152-1.294-.154-2.33-.477-3.153-1.209-.476-.422-.776-1.033-.98-1.678-.206-.656-.336-1.425-.421-2.245-.145-1.395-.166-3.024-.169-4.637a1.634 1.634 0 01-.346-.209 1.75 1.75 0 01-.526-.706c-.13-.322-.13-.682-.128-1.02v-.119c0-.816 0-1.474.044-2.007.045-.55.14-1.031.368-1.477a3.75 3.75 0 011.629-1.629c.445-.228.927-.323 1.476-.368.534-.044 1.192-.044 2.008-.044m-3.023 8.059c.007 1.437.036 2.817.159 4.003.08.77.196 1.427.36 1.948.168.53.361.845.545 1.008.495.44 1.178.703 2.335.84 1.17.14 2.709.142 4.849.142s3.678-.001 4.849-.141c1.157-.138 1.84-.402 2.335-.841.183-.163.377-.478.544-1.008.164-.52.281-1.178.361-1.948.123-1.186.152-2.567.159-4.003l-4.998 1.499v.354c0 .51-.311.97-.786 1.16l-.7.28a4.75 4.75 0 01-3.528 0l-.7-.28a1.25 1.25 0 01-.786-1.16v-.354zm4.998-.067l-5.393-1.618a7.34 7.34 0 01-.43-.137.538.538 0 01-.085-.037.25.25 0 01-.073-.099.538.538 0 01-.012-.091 7.29 7.29 0 01-.007-.452c0-.856 0-1.453.039-1.918.037-.456.107-.717.208-.915a2.25 2.25 0 01.977-.978c.199-.101.46-.17.916-.208.465-.038 1.061-.039 1.918-.039h10.384c.856 0 1.453 0 1.918.039.455.037.717.107.915.208.42.215.762.557.978.978.101.198.17.46.208.915.038.465.039 1.062.039 1.918 0 .225 0 .355-.008.452a.539.539 0 01-.011.091.251.251 0 01-.074.099.54.54 0 01-.084.037 7.355 7.355 0 01-.43.137l-5.393 1.618V13c0-.69-.56-1.25-1.25-1.25h-4c-.69 0-1.25.56-1.25 1.25zm12.41-1.793l-.003.001zm.07-.096l.001-.002zm-18.46 0l-.001-.002zm.07.096l.002.001zm7.41 1.801v1.742l.543.217a3.25 3.25 0 002.414 0l.543-.217V13.25zM12 2.75a2.25 2.25 0 00-2.122 1.5.75.75 0 01-1.414-.5 3.751 3.751 0 017.073 0 .75.75 0 01-1.415.5A2.251 2.251 0 0012 2.75" clip-rule="evenodd"/></svg>