<svg xmlns="http://www.w3.org/2000/svg" viewBox="0 0 500 500"><path fill="#c7c7c7" d="M99.17 96.56h3.47v367.48h-3.47z"/><path fill="#dbdbdb" d="M102.64 96.56h3.47v367.48h-3.47z"/><path fill="#c7c7c7" d="M76.94 151.19h3.47v312.86h-3.47z"/><path fill="#dbdbdb" d="M80.41 151.19h3.47v312.86h-3.47z"/><path fill="#c7c7c7" d="M53.73 192.15h3.47v271.89h-3.47z"/><path fill="#dbdbdb" d="M57.2 192.15h3.47v271.89H57.2z"/><path fill="#c7c7c7" d="M166.83 66.56h3.47v397.48h-3.47z"/><path fill="#dbdbdb" d="M170.3 66.56h3.47v397.48h-3.47z"/><path fill="#c7c7c7" d="M234.49 66.56h3.47v397.48h-3.47z"/><path fill="#dbdbdb" d="M237.96 66.56h3.47v397.48h-3.47z"/><path fill="#dbdbdb" d="M53.73 381.03h187.71v16.34H53.73zm0-91.06h187.71v16.34H53.73zm0-91.06h187.71v16.34H53.73zm392.55 265.13H344.32V360.29h101.96zm-101.97 0H242.35V299.66h101.96z"/><path fill="#ebebeb" d="M203.38 299.67h38.98v164.38h-38.98z"/><path fill="#fff" d="M332.22 321.85h-20.08v-8.67h20.08zm0 18.53h-20.08v-8.67h20.08zm0 18.51h-20.08v-8.67h20.08zm0 18.52h-20.08v-8.67h20.08zm0 18.51h-20.08v-8.67h20.08zm0 18.53h-20.08v-8.67h20.08zm0 18.51h-20.08v-8.67h20.08zm-28.88-111.11h-20.08v-8.67h20.08zm0 18.53h-20.08v-8.67h20.08zm0 18.51h-20.08v-8.67h20.08zm0 18.52h-20.08v-8.67h20.08zm0 18.51h-20.08v-8.67h20.08zm0 18.53h-20.08v-8.67h20.08zm0 18.51h-20.08v-8.67h20.08zm-28.81-111.11h-20.08v-8.67h20.08zm0 18.53h-20.08v-8.67h20.08zm0 18.51h-20.08v-8.67h20.08zm0 18.52h-20.08v-8.67h20.08zm0 18.51h-20.08v-8.67h20.08zm0 18.53h-20.08v-8.67h20.08zm0 18.51h-20.08v-8.67h20.08zm159.65-55.55H414.1v-8.67h20.08zm0 18.51H414.1v-8.67h20.08zm0 18.53H414.1v-8.67h20.08zm0 18.51H414.1v-8.67h20.08zm-28.89-55.55h-20.08v-8.67h20.08zm0 18.51h-20.08v-8.67h20.08zm0 18.53h-20.08v-8.67h20.08zm0 18.51h-20.08v-8.67h20.08zm-28.81-55.55H356.4v-8.67h20.08zm0 18.51H356.4v-8.67h20.08zm0 18.53H356.4v-8.67h20.08zm0 18.51H356.4v-8.67h20.08zM232.9 321.85h-20.08v-8.67h20.08zm0 18.53h-20.08v-8.67h20.08zm0 18.51h-20.08v-8.67h20.08zm0 18.52h-20.08v-8.67h20.08zm0 18.51h-20.08v-8.67h20.08zm0 18.53h-20.08v-8.67h20.08zm0 18.51h-20.08v-8.67h20.08z"/><path fill="#c7c7c7" d="M287.91 251.38h3.62v48.29h-3.62z"/><path fill="#dbdbdb" d="M291.53 251.38h3.62v48.29h-3.62z"/><path fill="#c7c7c7" d="M238.74 251.38h3.62v48.29h-3.62z"/><path fill="#dbdbdb" d="M242.36 251.38h3.62v48.29h-3.62z"/><path fill="#c7c7c7" d="M337.07 251.38h3.62v48.29h-3.62z"/><path fill="#dbdbdb" d="M340.69 251.38h3.62v48.29h-3.62z"/><path fill="#c7c7c7" d="M389.86 311.89h3.62v48.29h-3.62z"/><path fill="#dbdbdb" d="M393.48 311.89h3.62v48.29h-3.62z"/><path fill="#c7c7c7" d="M439.03 311.89h3.62v48.29h-3.62z"/><path fill="#dbdbdb" d="M442.65 311.89h3.62v48.29h-3.62z"/><path fill="#c7c7c7" d="M203.38 251.38H207v48.29h-3.62z"/><path fill="#dbdbdb" d="M207 251.38h3.62v48.29H207zm242.77-120.4l5.5-8.87-2.72-1.68c-.8-.5-1.23-1.4-1.15-2.34.04-.52.06-1.04.05-1.56-.02-.94.47-1.81 1.3-2.25l2.82-1.51-4.94-9.21-2.82 1.51c-.83.44-1.82.37-2.59-.17-.43-.3-.87-.57-1.33-.82-.82-.45-1.34-1.31-1.31-2.25l.1-3.2-10.44-.32-.1 3.21c-.03.94-.6 1.76-1.46 2.16-.23.11-.46.22-.69.35-.23.12-.45.25-.67.38-.8.48-1.8.51-2.59.02l-2.74-1.7-5.5 8.87 2.72 1.69c.8.5 1.23 1.4 1.15 2.34-.04.52-.06 1.03-.05 1.55.02.94-.47 1.81-1.3 2.25l-2.82 1.51 4.94 9.21 2.82-1.51c.83-.44 1.82-.37 2.59.17.43.3.87.57 1.32.82.83.45 1.34 1.31 1.31 2.25l-.1 3.2 10.44.32.1-3.2c.03-.94.6-1.75 1.45-2.15.23-.11.46-.23.69-.35.23-.12.45-.25.67-.38.81-.49 1.81-.51 2.61-.02l2.72 1.69zm-8.84-6.59c-4.16 2.23-9.34.67-11.58-3.49-2.23-4.16-.67-9.35 3.49-11.58 4.16-2.23 9.35-.67 11.59 3.5 2.23 4.16.66 9.35-3.5 11.58zm-370.52-8.93l-3.66-6.34-1.94 1.12c-.57.33-1.27.3-1.82-.06-.3-.2-.62-.38-.95-.55-.59-.3-.96-.89-.96-1.55v-2.24h-7.32v2.24c0 .66-.38 1.25-.96 1.55-.33.17-.64.35-.95.55-.55.36-1.25.39-1.82.06l-1.94-1.12-3.66 6.34 1.95 1.12c.57.33.89.96.85 1.61 0 .18-.01.36-.01.54s0 .36.01.54c.03.66-.28 1.28-.85 1.61l-1.95 1.13 3.66 6.34 1.94-1.12c.57-.33 1.27-.3 1.82.06.3.2.62.38.94.55.58.3.96.89.96 1.55v2.24h7.32v-2.24c0-.66.38-1.25.96-1.55.32-.17.64-.35.94-.55a1.73 1.73 0 011.82-.06l1.94 1.12 3.66-6.34-1.95-1.12c-.57-.33-.88-.95-.85-1.61 0-.18.01-.36.01-.54s0-.36-.01-.54c-.03-.66.28-1.29.85-1.61l1.94-1.12zm-6.99 3.27c0 3.31-2.68 5.99-5.99 5.99s-6-2.68-6-5.99 2.69-6 6-6 5.99 2.69 5.99 6z"/><g fill="#ebebeb"><path d="M337.17 32.9c-15.74 0-28.49 12.75-28.49 28.49s12.75 28.49 28.49 28.49 28.49-12.76 28.49-28.49S352.9 32.9 337.17 32.9zm0 41.79c-7.35 0-13.31-5.95-13.31-13.3s5.96-13.31 13.31-13.31 13.31 5.96 13.31 13.31-5.96 13.3-13.31 13.3z"/><path d="M342.65 34.08h-10.96l.61-7.75h9.75l.6 7.75zm-20.85 3.69l-7.75 7.75-5.06-5.91 6.89-6.89 5.92 5.05zm-12.14 17.36v10.96l-7.76-.61v-9.74l7.76-.61zm3.69 20.85l7.75 7.75-5.91 5.06-6.89-6.89 5.05-5.92zm17.36 12.14h10.96l-.61 7.76h-9.75l-.6-7.76zm20.85-3.69l7.75-7.75 5.06 5.91-6.89 6.9-5.92-5.06zm12.14-17.36V56.12l7.76.6v9.75l-7.76.6zm-3.69-20.85l-7.75-7.75 5.91-5.06 6.89 6.89-5.05 5.92z"/></g><path d="M378.91 122.28c-15.71 24.24-40.19 80.43-44.51 88.43-2.93 5.43 26.03 18.37 27.46 14.39 1.84-5.1 24.72-67.64 27.52-97.34 1.3-13.76-5.45-13.23-10.48-5.48z" fill="#d3766a"/><path d="M364.86 216.04c.1-4.08-23.35-15.72-26.77-13.29-3.08 2.19-12.96 6.84-21.16 7.65-6.89.69-17.21.92-16.98 4.65.32 5.43 13.4 6.7 20.95 6.97-2.14 3.51-3.66 6.72-3.86 8.92-.65 7.3 31.57 14.35 36.73 8.97 4.97-5.19 10.98-19.78 11.08-23.86z" fill="#d3766a"/><path d="M313.74 263.77l39.49 8.11 8.7-42.36-39.49-8.11-8.7 42.36zm8.32-12.09l4.91-23.91 28.28 5.81-4.91 23.91-28.28-5.81z" fill="#263238"/><path fill="#c7c7c7" d="M317 375.09l-.06-.05 2.78-.21.05-.13-.01-.01-2.16-1.63 2.77-.22.04-.14-2.18-1.63 2.79-.22.04-.14-2.17-1.62 2.76-.23.05-.14-2.18-1.63 2.79-.21.04-.15-2.17-1.64 2.79-.22.03-.13.02-.01-2.18-1.63 2.77-.22.03-.13-2.16-1.63 2.78-.23.04-.13h.01l-2.18-1.63 2.77-.22.03-.13.01-.02-2.17-1.62 2.78-.22.04-.13-2.17-1.64 2.78-.22.05-.14-2.2-1.63 2.79-.22.04-.14-2.17-1.62 2.78-.23.05-.13-2.19-1.64 2.79-.23.03-.13-2.17-1.64 2.79-.22.04-.12-2.17-1.65 2.77-.22.05-.13-2.18-1.63 2.78-.23.05-.13-2.18-1.63 2.79-.22.05-.13-2.19-1.64 2.77-.22.05-.14-2.17-1.63 2.78-.23.04-.13-2.19-1.64 2.78-.22.05-.14-2.18-1.63 2.79-.21.05-.14-2.19-1.64 2.79-.21.05-.14-2.18-1.64 2.78-.22.04-.12-2.18-1.65 2.8-.22.03-.12-2.18-1.65 2.78-.22.04-.13-2.17-1.64 2.79-.21.04-.13-2.19-1.64 2.78-.23h.01l.04-.13-2.18-1.65 2.79-.21.04-.13-2.19-1.64 2.8-.23.04-.12-2.18-1.65 2.78-.21.04-.13-2.19-1.64 2.81-.22.03-.13-2.18-1.64 2.78-.21.04-.13-2.18-1.64 2.8-.24.03-.11-2.18-1.65 2.8-.23.03-.13-2.18-1.63 2.79-.23.04-.13-2.19-1.64 2.8-.22.04-.13-2.19-1.64 2.79-.21.05-.14-2.2-1.63 2.8-.22.05-.14-2.18-1.64 2.77-.21.05-.13-2.18-1.65 2.79-.23.05-.12-2.19-1.64 2.8-.22.04-.11-2.2-1.65 2.79-.23.05-.14-2.19-1.64 2.8-.2.05-.14-2.21-1.64 2.8-.22.04-.13-2.18-1.65 2.8-.22.04-.11-2.19-1.64 2.8-.22.02-.14-2.18-1.64 2.8-.22.03-.13-2.18-1.64 2.8-.22.04-.12-2.2-1.65 2.81-.22.03-.12-2.19-1.65 2.81-.22.04-.13-2.21-1.65 2.8-.22.48-1.43-39.48-8.11-16.73 107.03 19.98 4.29z"/><path d="M308.3 298.62l37.64-10.77 2.06-.59.24-.07.02-.07-2.18-1.65 2.8-.22.04-.11-2.19-1.64 2.8-.22.02-.14-2.18-1.64 2.8-.22.03-.13-1.5-1.13-39.25 11.23-1.15 7.37zm-7.21 73.06l14.07 3.01 3.33-.95-.89-.68 2.77-.22.04-.14-2.18-1.63 2.79-.22.04-.14-2.17-1.62 2.76-.23.05-.14-2.18-1.63 2.79-.21.04-.15-1.09-.83-20.17 5.78zm27.33-28.56l1.66-.14.05-.13-.21-.16-1.5.43zm-29.49 15.48l25.83-7.39.2-.06 2.19-.62-1.8-1.35 2.79-.23.03-.13-2.17-1.64 2.79-.22.04-.12-2.17-1.65 2.77-.22.05-.13-1.95-1.46-27.44 7.84-1.16 7.38zm11.47-73.41l39.88-11.42 1.3-.37 1.26-.35.39-1.17-5.04-1.04-37.21 10.65-.58 3.7zm20.91 48.64l-.78-.58 2.79-.21.05-.14-1.37-1.03-30.24 8.65-.29 1.84 29.84-8.53zm-19.94-54.88l31.86-9.13-3.59-.72-27.98 7.99-.29 1.86z" opacity=".3" fill="#fff"/><path d="M320.31 219.89c3.68-.99 2.74 3.91 2.74 3.91s3.05-6.73 7.24-6.29c4.03.44 2.69 6.32 2.6 6.74.16-.35 3.13-6.47 7.29-5.59 4.32.92 1.97 6.59 1.81 6.96.26-.29 3.77-4.01 6.78-2.62 5.17 2.39-3.53 12.16-3.07 16.75 0 0 7.86.11 8.09.16 0 0-8.09 9.47-14.31 9.74-3.28.14-4.06-2.88-4.06-2.88s-2.27 3.34-5.57 2.75c-1.69-.31-2.71-3.29-2.71-3.29s-1.93 2.6-4.83 1.89c-2.32-.56-2.97-3.46-2.97-3.46s-3.01 1.64-5.19.3c-4.41-2.69-1.7-22.94 6.18-25.07z" fill="#d3766a"/><path d="M319.15 244.22c0 .07-.1.08-.11 0-.73-6.88.57-14.66 4.03-20.7.11-.2.48-.1.4.14-2.38 6.9-3.94 13.22-4.32 20.55zm7.93 2.11c0 .08-.14.07-.14-.01-.72-7.09.99-15.82 5.8-22.3.17-.22.54-.26.37.01-2.87 4.56-5.7 15.7-6.02 22.3zm15.4-21.04c-4.37 6.4-6.25 13.56-7.12 21.18-.01.1-.15.07-.16-.01-.59-3.85.47-8.65 1.62-12.32 1.1-3.51 2.79-6.46 5.44-9 .1-.1.32.02.22.15z" fill="#263238"/><path d="M322.99 223.68c.14-.24.33.22.48-.01.61-.98 4.76-6.57 7.1-5.75 1.88.66 2.29 3.65 1.99 4.85l-.73 3.04 1.75-2.6c.76-1.13 1.73-2.22 2.81-3.04 1.08-.82 2.37-1.35 3.57-1.09 1.26.24 2.16 1.13 2.25 2.39.14 1.24-.24 2.67-.78 3.88l-1.5 3.38 2.51-2.69c.68-.73 1.5-1.42 2.36-1.96.86-.53 1.81-.92 2.72-.88.89.04 1.76.57 2.07 1.36.34.83.23 1.9.02 2.91-.45 2.05-1.35 4.03-2.15 6.04-.41 1-.82 2.01-1.18 3.04-.34 1.02-.71 2.1-.59 3.19 0-1.09.47-2.09.87-3.08.43-.99.91-1.95 1.4-2.92.96-1.94 1.91-3.9 2.52-6.06.26-1.08.51-2.25.09-3.49-.44-1.27-1.73-2.05-2.98-2.12-1.28-.07-2.42.42-3.4 1-.99.6-1.85 1.3-2.66 2.14l1.01.69c.65-1.43 1.1-2.9.97-4.57-.07-.82-.42-1.7-1.06-2.33-.64-.64-1.43-.98-2.26-1.14-1.72-.32-3.34.45-4.52 1.38-1.22.96-2.2 2.1-3.04 3.39l1.01.44c.32-1.55.22-4.93-2.56-6.33-3.9-1.28-7.52 5.63-8.09 6.94z" fill="#263238"/><path d="M323.05 223.8c-.03-.83-.13-1.64-.37-2.31-.24-.67-.73-1.12-1.31-1.23-.58-.12-1.31.11-2 .42-.69.33-1.4.71-2.12 1.13.43-.72 1-1.36 1.71-1.85.7-.48 1.57-.91 2.62-.75.51.12.97.37 1.31.75.33.39.52.86.59 1.31.15.91-.06 1.77-.43 2.52z" fill="#263238"/><path d="M375.21 126.24c6.25-11.12 14.57-16.47 14.57-2.19 0 20.39-5.64 42.85-5.64 42.85l-24.65-13.28s9.81-16.87 15.71-27.38z" fill="#ebebeb"/><path fill="#dbdbdb" d="M356.62 154.65l27.4 15.51-.15-1.27 2.03-.48-.12-.96 1.27-2.37-27.92-14.54.16 1.33-1.68.75.29 1.2-1.28.83z"/><path d="M309.01 459.43c2.59.81 75.93-.77 78.69-2.59 1.04-.68 1.44-11.39 1.55-24.32.03-2.8.03-5.67.02-8.61 0-3.47-2.42-37.24-2.42-37.24l-47.04.88 1.74 37.24.41 8.6s-27.81 13.17-30.62 15.5c-2.8 2.32-4.91 9.74-2.33 10.54z" fill="#d3766a"/><path d="M309.01 459.44c2.59.8 75.93-.77 78.7-2.59 1.04-.68 1.44-11.39 1.54-24.33.03-2.79.03-5.67.02-8.61 0-.63-.09-2.26-.21-4.5H341.3l.25 5.38.41 8.61s-27.82 13.16-30.62 15.5c-2.79 2.32-4.9 9.74-2.34 10.54z" fill="#ebebeb"/><path d="M307.91 457.29v5.59c0 .58.47 1.05 1.06 1.05h.34c.5 0 .9-.36 1.03-.84.37-1.33 1.6-2.32 3.06-2.32s2.7.98 3.07 2.32c.13.48.53.84 1.03.84h1.6c.5 0 .9-.36 1.03-.84.37-1.33 1.6-2.32 3.06-2.32s2.69.98 3.06 2.32c.13.48.53.84 1.03.84h1.6c.5 0 .9-.36 1.03-.84.37-1.33 1.6-2.32 3.06-2.32s2.7.98 3.07 2.32c.13.48.53.84 1.03.84h1.6c.5 0 .9-.36 1.03-.84.37-1.33 1.6-2.32 3.06-2.32s2.69.98 3.06 2.32c.13.48.53.84 1.03.84h1.6c.5 0 .9-.36 1.03-.84.37-1.33 1.6-2.32 3.06-2.32s2.7.98 3.07 2.32c.13.48.53.84 1.03.84h1.6c.5 0 .9-.36 1.03-.84.37-1.33 1.6-2.32 3.06-2.32s2.69.98 3.06 2.32c.13.48.53.84 1.03.84h1.6c.5 0 .9-.36 1.03-.84.37-1.33 1.6-2.32 3.06-2.32s2.7.98 3.07 2.32c.13.48.53.84 1.03.84h1.6c.5 0 .9-.36 1.03-.84.37-1.33 1.6-2.32 3.06-2.32s2.69.98 3.06 2.32c.13.48.53.84 1.03.84h1.14c.58 0 1.06-.47 1.06-1.05v-5.59c0-.58-.47-1.05-1.06-1.05h-78.28c-.58 0-1.06.47-1.06 1.05z" fill="#ffc727"/><path d="M307.91 457.29v5.59c0 .58.47 1.05 1.06 1.05h.34c.5 0 .9-.36 1.03-.84.37-1.33 1.6-2.32 3.06-2.32s2.7.98 3.07 2.32c.13.48.53.84 1.03.84h1.6c.5 0 .9-.36 1.03-.84.37-1.33 1.6-2.32 3.06-2.32s2.69.98 3.06 2.32c.13.48.53.84 1.03.84h1.6c.5 0 .9-.36 1.03-.84.37-1.33 1.6-2.32 3.06-2.32s2.7.98 3.07 2.32c.13.48.53.84 1.03.84h1.6c.5 0 .9-.36 1.03-.84.37-1.33 1.6-2.32 3.06-2.32s2.69.98 3.06 2.32c.13.48.53.84 1.03.84h1.6c.5 0 .9-.36 1.03-.84.37-1.33 1.6-2.32 3.06-2.32s2.7.98 3.07 2.32c.13.48.53.84 1.03.84h1.6c.5 0 .9-.36 1.03-.84.37-1.33 1.6-2.32 3.06-2.32s2.69.98 3.06 2.32c.13.48.53.84 1.03.84h1.6c.5 0 .9-.36 1.03-.84.37-1.33 1.6-2.32 3.06-2.32s2.7.98 3.07 2.32c.13.48.53.84 1.03.84h1.6c.5 0 .9-.36 1.03-.84.37-1.33 1.6-2.32 3.06-2.32s2.69.98 3.06 2.32c.13.48.53.84 1.03.84h1.14c.58 0 1.06-.47 1.06-1.05v-5.59c0-.58-.47-1.05-1.06-1.05h-78.28c-.58 0-1.06.47-1.06 1.05z" opacity=".2"/><path d="M308.79 459.55c1.68.52 32.93.05 55.66-.84 5.26-.21 10.07-.44 13.95-.68 5.35-.35 8.93-.7 9.51-1.09 1.28-.85 1.6-16.55 1.59-33.11l-47.99.89.41 8.65s-27.97 13.24-30.8 15.58c-2.81 2.34-4.93 9.79-2.34 10.61z" fill="#ffc727"/><path d="M308.79 459.55c1.68.52 32.93.05 55.66-.84 5.26-.21 10.07-.44 13.95-.68 5.35-.35 8.93-.7 9.51-1.09 1.28-.85 1.6-16.55 1.59-33.11l-47.99.89.41 8.65s-27.97 13.24-30.8 15.58c-2.81 2.34-4.93 9.79-2.34 10.61z" fill="#ffc727"/><path d="M308.79 459.55c1.68.52 32.93.05 55.66-.84 5.26-.21 10.07-.44 13.95-.68 5.35-.35 8.93-.7 9.51-1.09 1.28-.85 1.6-16.55 1.59-33.11l-47.99.89.41 8.65s-27.97 13.24-30.8 15.58c-2.81 2.34-4.93 9.79-2.34 10.61z" opacity=".5"/><g fill="#ffc727"><path d="M309.79 456.58c12.36-.57 62.25-1.69 74.51-1.32.1 0 .1.07 0 .08-12.23.83-62.13 1.55-74.5 1.44-.26 0-.26-.19 0-.2zm30.33-25.93c4.85-1.01 10.81-.39 14.6 2.99.15.13-.04.34-.2.29-4.83-1.41-9.34-2.29-14.37-2.67-.35-.03-.38-.54-.03-.61zm-3.46 2.2c4.85-1.01 10.81-.39 14.6 2.99.15.13-.04.34-.2.29-4.83-1.41-9.34-2.29-14.37-2.67-.35-.03-.38-.54-.03-.61zm-3.47 2.19c4.85-1.01 10.81-.39 14.6 2.99.15.13-.04.34-.2.29-4.83-1.41-9.34-2.29-14.37-2.67-.35-.03-.38-.54-.03-.61zm-3.47 2.19c4.85-1.01 10.81-.39 14.6 2.99.15.13-.04.34-.2.29-4.83-1.41-9.34-2.29-14.37-2.67-.35-.03-.38-.54-.03-.61z"/><path d="M333.23 426.48c3.5 2.6 8 3.6 12.05 5 .42.15.74-.25.75-.62.08-.02.15-.08.11-.18-1.41-4.04-4.38-8.29-7.73-10.98-2.07-1.66-5.65-2.77-7.51-.1-1.75 2.53.29 5.36 2.33 6.88zm-1.32-3.89c-.97-5.32 4.82-2.64 6.29-1.35.95.83 1.81 1.78 2.64 2.73 1.73 1.98 3.14 4.18 4.66 6.32-1.95-.81-3.95-1.45-5.92-2.18-2.35-.88-7.13-2.58-7.67-5.51z"/><path d="M362.22 422.92c-1.24-3.01-4.98-2.69-7.36-1.51-3.85 1.92-7.66 5.44-9.9 9.08-.06.09 0 .16.07.2-.07.36.16.82.6.77 4.26-.5 8.87-.52 12.84-2.31 2.32-1.05 4.92-3.38 3.74-6.23zm-10.29 6.45c-2.09.3-4.18.49-6.25.87 1.94-1.77 3.78-3.61 5.9-5.18 1.01-.75 2.06-1.5 3.16-2.1 1.72-.94 7.95-2.32 5.86 2.67-1.15 2.75-6.18 3.39-8.67 3.74z"/></g><path d="M389.49 430.11c-.07 14.05-.46 26.09-1.57 26.83-.58.38-4.16.74-9.51 1.08-3.88.24-8.7.48-13.95.68-4.23.17-8.75.32-13.33.45 12.75-9.74 27.09-20.56 38.36-29.05z" opacity=".1"/><path d="M338.97 428.35h52.02s-10.48-111.73-10.07-113.85c.52-2.72 3.59-15.02 7.68-31.08 1.28-5.03 2.66-10.42 4.1-16.01 3.88-15.12 8.15-31.63 11.88-46.01 5.59-21.54 9.96-38.26 9.96-38.26h-44.09s-5.14 16.29-11.61 37.48c-10.55 34.44-24.65 81.84-26.04 93.37-2.25 18.61 6.18 114.37 6.18 114.37z" fill="#37474f"/><path d="M341.27 419.47c7.94-.17 5.66-.23 13.61-.31 3.89-.04 29.44-.26 33.07.34.08.01.08.15 0 .16-3.63.6-29.19.38-33.07.34-7.95-.08-5.66-.14-13.61-.31-.15 0-.15-.23 0-.23zm29.87-112.4c1.71-7.52 4.25-14.89 6.47-22.27 4.51-15 9.05-29.99 13.61-44.97 2.28-7.49 4.56-14.98 6.86-22.47 1.16-3.78 2.32-7.56 3.51-11.33 1.16-3.69 2.48-7.35 3.52-11.08.42-1.52.66-.68.11 1.24-1.1 3.88-2.18 7.76-3.31 11.63-2.24 7.67-4.5 15.33-6.76 22.98-4.51 15.24-9.08 30.46-13.65 45.69-2.29 7.63-4.59 15.26-6.89 22.89-1.1 3.65-2.17 7.32-2.81 11.07-.67 3.92-.71 7.89-.46 11.85.5 7.96 7.3 69.62 8.72 85.46.18 2.01.36 4.01.51 6.02.05.67-.42.75-.49.11-1.71-15.66-7.97-68.62-9.42-84.23-.37-3.92-.78-7.84-.79-11.78 0-3.65.46-7.26 1.27-10.82z" fill="#263238"/><path d="M375.46 183.12c3.06 23.68 8.89 68.08 13.15 100.29 9.94-39.03 25.93-100.29 25.93-100.29h-39.08z" fill="#263238"/><path d="M364.24 459.43c2.59.81 75.93-.77 78.69-2.59 1.04-.68 1.44-11.39 1.55-24.32.03-2.8.03-5.67.02-8.61 0-3.47-2.42-37.24-2.42-37.24l-47.04.88 1.74 37.24.41 8.6s-27.81 13.17-30.62 15.5c-2.8 2.32-4.9 9.74-2.33 10.54z" fill="#d3766a"/><path d="M364.24 459.44c2.59.8 75.93-.77 78.7-2.59 1.04-.68 1.44-11.39 1.54-24.33.03-2.79.03-5.67.02-8.61 0-.63-.09-2.26-.21-4.5h-47.76l.25 5.38.41 8.61s-27.82 13.16-30.62 15.5c-2.79 2.32-4.9 9.74-2.34 10.54z" fill="#ebebeb"/><path d="M363.14 457.29v5.59c0 .58.47 1.05 1.06 1.05h.34c.5 0 .9-.36 1.03-.84.37-1.33 1.6-2.32 3.06-2.32s2.7.98 3.07 2.32c.13.48.53.84 1.03.84h1.6c.5 0 .9-.36 1.03-.84.37-1.33 1.6-2.32 3.06-2.32s2.69.98 3.06 2.32c.13.48.53.84 1.03.84h1.6c.5 0 .9-.36 1.03-.84.37-1.33 1.6-2.32 3.06-2.32s2.7.98 3.07 2.32c.13.48.53.84 1.03.84h1.6c.5 0 .9-.36 1.03-.84.37-1.33 1.6-2.32 3.06-2.32s2.69.98 3.06 2.32c.13.48.53.84 1.03.84h1.6c.5 0 .9-.36 1.03-.84.37-1.33 1.6-2.32 3.06-2.32s2.7.98 3.07 2.32c.13.48.53.84 1.03.84h1.6c.5 0 .9-.36 1.03-.84.37-1.33 1.6-2.32 3.06-2.32s2.69.98 3.06 2.32c.13.48.53.84 1.03.84h1.6c.5 0 .9-.36 1.03-.84.37-1.33 1.6-2.32 3.06-2.32s2.7.98 3.07 2.32c.13.48.53.84 1.03.84h1.6c.5 0 .9-.36 1.03-.84.37-1.33 1.6-2.32 3.06-2.32s2.69.98 3.06 2.32c.13.48.53.84 1.03.84h1.14c.58 0 1.06-.47 1.06-1.05v-5.59c0-.58-.47-1.05-1.06-1.05h-78.28c-.58 0-1.06.47-1.06 1.05z" fill="#ffc727"/><path d="M363.14 457.29v5.59c0 .58.47 1.05 1.06 1.05h.34c.5 0 .9-.36 1.03-.84.37-1.33 1.6-2.32 3.06-2.32s2.7.98 3.07 2.32c.13.48.53.84 1.03.84h1.6c.5 0 .9-.36 1.03-.84.37-1.33 1.6-2.32 3.06-2.32s2.69.98 3.06 2.32c.13.48.53.84 1.03.84h1.6c.5 0 .9-.36 1.03-.84.37-1.33 1.6-2.32 3.06-2.32s2.7.98 3.07 2.32c.13.48.53.84 1.03.84h1.6c.5 0 .9-.36 1.03-.84.37-1.33 1.6-2.32 3.06-2.32s2.69.98 3.06 2.32c.13.48.53.84 1.03.84h1.6c.5 0 .9-.36 1.03-.84.37-1.33 1.6-2.32 3.06-2.32s2.7.98 3.07 2.32c.13.48.53.84 1.03.84h1.6c.5 0 .9-.36 1.03-.84.37-1.33 1.6-2.32 3.06-2.32s2.69.98 3.06 2.32c.13.48.53.84 1.03.84h1.6c.5 0 .9-.36 1.03-.84.37-1.33 1.6-2.32 3.06-2.32s2.7.98 3.07 2.32c.13.48.53.84 1.03.84h1.6c.5 0 .9-.36 1.03-.84.37-1.33 1.6-2.32 3.06-2.32s2.69.98 3.06 2.32c.13.48.53.84 1.03.84h1.14c.58 0 1.06-.47 1.06-1.05v-5.59c0-.58-.47-1.05-1.06-1.05h-78.28c-.58 0-1.06.47-1.06 1.05z" opacity=".2"/><path d="M364.02 459.55c1.68.52 32.93.05 55.66-.84 5.26-.21 10.07-.44 13.95-.68 5.35-.35 8.93-.7 9.51-1.09 1.28-.85 1.6-16.55 1.59-33.11l-47.99.89.41 8.65s-27.97 13.24-30.8 15.58c-2.81 2.34-4.93 9.79-2.34 10.61z" fill="#ffc727"/><path d="M364.02 459.55c1.68.52 32.93.05 55.66-.84 5.26-.21 10.07-.44 13.95-.68 5.35-.35 8.93-.7 9.51-1.09 1.28-.85 1.6-16.55 1.59-33.11l-47.99.89.41 8.65s-27.97 13.24-30.8 15.58c-2.81 2.34-4.93 9.79-2.34 10.61z" fill="#ffc727"/><path d="M364.02 459.55c1.68.52 32.93.05 55.66-.84 5.26-.21 10.07-.44 13.95-.68 5.35-.35 8.93-.7 9.51-1.09 1.28-.85 1.6-16.55 1.59-33.11l-47.99.89.41 8.65s-27.97 13.24-30.8 15.58c-2.81 2.34-4.93 9.79-2.34 10.61z" opacity=".5"/><g fill="#ffc727"><path d="M365.02 456.58c12.36-.57 62.25-1.69 74.51-1.32.1 0 .1.07 0 .08-12.23.83-62.13 1.55-74.5 1.44-.26 0-.26-.19 0-.2zm30.33-25.93c4.85-1.01 10.81-.39 14.6 2.99.15.13-.04.34-.2.29-4.83-1.41-9.34-2.29-14.37-2.67-.35-.03-.38-.54-.03-.61zm-3.46 2.2c4.85-1.01 10.81-.39 14.6 2.99.15.13-.04.34-.2.29-4.83-1.41-9.34-2.29-14.37-2.67-.35-.03-.38-.54-.03-.61zm-3.47 2.19c4.85-1.01 10.81-.39 14.6 2.99.15.13-.04.34-.2.29-4.83-1.41-9.33-2.29-14.37-2.67-.35-.03-.38-.54-.03-.61zm-3.47 2.19c4.85-1.01 10.81-.39 14.6 2.99.15.13-.04.34-.2.29-4.83-1.41-9.34-2.29-14.37-2.67-.35-.03-.38-.54-.03-.61z"/><path d="M388.45 426.48c3.5 2.6 8 3.6 12.05 5 .42.15.74-.25.75-.62.08-.02.15-.08.11-.18-1.41-4.04-4.38-8.29-7.73-10.98-2.07-1.66-5.65-2.77-7.51-.1-1.75 2.53.29 5.36 2.33 6.88zm-1.32-3.89c-.97-5.32 4.82-2.64 6.29-1.35.95.83 1.81 1.78 2.64 2.73 1.73 1.98 3.14 4.18 4.66 6.32-1.95-.81-3.95-1.45-5.92-2.18-2.35-.88-7.13-2.58-7.67-5.51z"/><path d="M417.45 422.92c-1.24-3.01-4.98-2.69-7.36-1.51-3.85 1.92-7.66 5.44-9.9 9.08-.06.09 0 .16.07.2-.07.36.16.82.6.77 4.26-.5 8.87-.52 12.84-2.31 2.32-1.05 4.92-3.38 3.74-6.23zm-10.29 6.45c-2.09.3-4.18.49-6.25.87 1.94-1.77 3.79-3.61 5.9-5.18 1.01-.75 2.06-1.5 3.16-2.1 1.72-.94 7.95-2.32 5.86 2.67-1.15 2.75-6.18 3.39-8.67 3.74z"/></g><path d="M371.88 183.12s1.02 21.09 5.85 37.8c.39 1.38.81 2.74 1.26 4.04 0 0 5.03 1.82 12.71 6.53 0 0 .51 16.97 1.02 35.9.56 21.16 1.15 44.76 1.03 49.77-.44 18.73 1.37 111.94 1.37 111.94l52.01.21s-8.43-105.23-8.36-112.1c.1-11.03-2.52-59.77-4.54-95.31-1.24-21.9-4.86-38.78-4.86-38.78H371.9z" fill="#37474f"/><g fill="#263238"><path d="M396.88 419.86c7.95-.13 5.66-.21 13.61-.25 3.89-.02 29.44-.13 33.07.48.08.01.08.15 0 .16-3.64.59-29.19.25-33.08.2-7.95-.11-5.66-.17-13.61-.36-.15 0-.15-.23 0-.23zm30.7-229.2c.96 29.02 1.97 58.04 3.27 87.04 1.3 29.1 7.16 123.51 8.91 139.69.01.11-.15.15-.17.04-3.79-28.78-4.92-61.62-6.78-90.59-1.86-28.96-3.12-57.97-4.11-86.98-.56-16.41-.99-32.82-1.48-49.23 0-.23.35-.21.36.02zm-49.22 34.31c4.86 1.67 9.56 4.05 14.05 6.54.18.1.06.37-.13.29-4.73-2.03-9.56-3.98-14.17-6.27-.36-.18-.12-.69.26-.56zm-1.64-30.01c.01-.15.3-.18.3-.02-.01 5.18.37 9.73.86 14.57.23 2.25 2.25 14.67 6.47 13.78.71-.15 1.06-.79 1.17-1.77.13-1.18-.36-2.63-.58-3.81-.48-2.6-.87-5.21-1.13-7.83-.48-4.9-.52-9.8.1-14.68.02-.16.27-.15.27.02.03 6.78.25 13.55 1.38 20.27.54 3.23 2.33 8.1-1.33 8.58-3.73.49-6.18-7.66-6.65-9.89-1.3-6.22-1.38-12.93-.88-19.21z"/><path d="M384.24 223.58c.38.9.69 1.85.95 2.79.2.73.48 1.53.39 2.3-.02.15-.21.16-.29.06-.5-.63-.71-1.49-.98-2.23-.32-.86-.66-1.72-.96-2.59-.2-.58.65-.88.89-.32z"/></g><path d="M435.71 206.56c-.18.2-75.91-.88-75.91-.88s15.67-78.59 23.73-89.12c3.15-4.11 14.6-9.76 24.67 1.68 9.35 10.62 27.5 88.32 27.5 88.32z" fill="#ebebeb"/><path d="M358.02 211.35h15.45l3.84-7.88 4.28 8.02s54.8.73 54.92.6c0 0-1.75-14.76-4.3-26.23-5.04-22.62-14.65-57.01-23.99-67.63-1.59-1.81-3.23-3.19-4.85-4.22-1.43 4.49-5.45 10.74-6.51 12.94-1.73 3.59-14.02 16.08-14.02 16.08s-1.21-11.99-.77-17.35c.16-1.92.69-5.33 1.32-8.9-8.05 10.78-15.64 44.19-19.93 66.84-2.42 12.77-5.42 27.73-5.42 27.73z" fill="#ffc727"/><g fill="#ebebeb"><path d="M432.27 186.19l-69.04-1.46c.07-.37.14-.74.21-1.1.26-1.38.54-2.8.82-4.26l1.41.03 4.74.1 22.34.47 4.7.1 33.58.71c.42 1.75.81 3.45 1.17 5.09.02.11.05.22.07.32zm2.81 15.51l-74.82-1.58c.32-1.69.67-3.5 1.05-5.36l72.9 1.53c.32 1.88.62 3.71.87 5.41z"/><path d="M397.45 180.06c.07 1.03.13 2.04.2 3.07l-4.88.21c0-1.12 0-2.25-.02-3.37-.07-10.41-.23-20.81.42-31.21.09-.79.11-1.58.42-2.56l10.87-31.43c.07.05.15.11.22.17l-8.49 32.02c-.14.49-.15 1.25-.18 1.98-.03 10.38.75 20.77 1.43 31.13zm-15.39-61.33c-2.06 9.39-4.41 20.1-6.26 28.16-1.75 9.23-3.75 22.3-5.39 32.6-.22 1.4-.44 2.74-.64 4.01l-4.8-.9c.22-1.04.46-2.1.7-3.2 2.28-10.42 5.04-23.56 7.44-33.16 1.84-6.04 4.92-16.24 7.54-24.94.46-.94.94-1.78 1.41-2.56z"/></g><path d="M382.83 143.03c-1.21 7.21-3.58 19.12-4.38 26.24-.53 8.64-.51 17.9-.84 26.59l-.3 7.61c-.26-11.43-.51-22.87.21-34.29 1.15-8.83 3.17-17.51 5.31-26.14z" fill="#263238"/><path d="M386.88 124.46c3.84 2.22 11.62-2.91 14.75-7.92.21-.35.52-14.46.68-17.3.04-.58-18.1 3.29-18.1 3.29s1.41 6.07 1.08 11.03c-.03.41-.09.8-.19 1.16 0 .05-.03.12-.04.19-.49 2.2-.16 8.42 1.81 9.55z" fill="#d3766a"/><path d="M385.08 114.91c.56.11 1.17.18 1.83.2 9.38.34 13.4-10.92 14.73-15.9-3.3.3-17.42 3.31-17.42 3.31s1.41 6.07 1.08 11.04c-.02.41-.09.8-.18 1.15 0 .05-.04.12-.04.2z" fill="#263238"/><path d="M405.23 77.2c2.01 6.31-1.11 24.66-5.57 28.8-6.46 6-17.16 6.69-22.28-1.1-4.97-7.56-.47-31.4 4.52-35.17 7.35-5.55 20.36-1.86 23.33 7.47z" fill="#d3766a"/><g fill="#263238"><path d="M390.01 88.85s.09.07.08.13c-.24 1.23-.32 2.68.74 3.28.03.02.02.08-.02.07-1.33-.42-1.22-2.34-.79-3.47z"/><path d="M391.33 87.74c2.01.18 1.51 4.19-.36 4.03-1.84-.16-1.33-4.18.36-4.03zm-9.08-.11s-.1.05-.11.1c-.12 1.25-.46 2.66-1.64 2.93-.04 0-.04.07 0 .07 1.4-.02 1.84-1.9 1.75-3.1z"/><path d="M381.3 86.19c-1.98-.4-2.64 3.59-.81 3.96 1.81.37 2.47-3.63.81-3.96zm11.48-.71c-.56-.09-1.07-.26-1.61-.4-.62-.16-1.12-.23-1.57-.73-.24-.27-.2-.79.04-1.04.55-.59 1.36-.58 2.11-.42.81.18 1.4.52 1.91 1.18.5.63-.15 1.53-.89 1.41zm-12.86-.38c.56.07 1.1.05 1.66.06.64.02 1.14.1 1.71-.26.3-.19.41-.7.25-1.01-.37-.72-1.14-.94-1.91-.99-.83-.06-1.49.11-2.17.59-.66.47-.29 1.51.46 1.61zm9.22 15.18c-.33.25-.68.62-1.14.6-.44-.02-.92-.28-1.3-.48a.044.044 0 00-.06.06c.26.52.9.9 1.49.87.58-.03.92-.48 1.12-.98.03-.07-.06-.11-.11-.07z"/><path d="M388.29 96.39c-.83.99-1.93 1.45-3.06 1.53a5.25 5.25 0 01-1.53-.12c-.1-.01-.2-.04-.29-.07-.09-.02-.17-.04-.27-.08-.14-.04-.21-.17-.21-.31 0-.05.01-.09.03-.13l.02-.12c.09-.96.37-2.41.37-2.41-.37.13-2.26.71-2.17.21.77-4.11 1.62-8.68 3.25-12.61.05-.13.25-.07.22.06-.58 3.98-1.86 7.83-2.5 11.82.6-.15 1.58-.43 2.08-.36.13.06-.58 2.78-.59 3.22v.05c1.58.41 2.86.07 4.56-.81.1-.06.19.04.1.13z"/></g><path d="M404.36 94.89c-1.12 4.94-2.79 9.33-4.7 11.1-6.46 6-17.16 6.7-22.28-1.1-1.72-2.61-2.3-7.15-2.13-12.13 1.79 4.35 6.16 1.25 6.16 1.25l2.2.09c2.26 3.64 8.77 2.9 12.13.71 2.45-1.59 4.2-7.32 4.2-7.32l4.42 7.4z" fill="#263238" opacity=".3"/><path d="M405.1 92.52c-2.73.65-4.75-2.64-5.39-4.36-.63-1.71.93-11.04-.29-13.62s-3.98-4.08-6.23-3.51c-2.25.58-5.24 3.4-6.87 3.19-1.64-.21-1.9-3.78-3.04-3.82-2.52-.09-5.4 6.02-5.96 8.76 0 0 .36-11.82 12.46-12.46 11.8-.62 15.29 7.6 16.19 11.18 1.71 6.86-.86 14.64-.86 14.64z" fill="#263238"/><path d="M400.13 91.47s4.07-5.97 6.78-4.52c2.7 1.45-.31 10.06-3.45 11.27-3.14 1.21-4.32-1.67-4.32-1.67l.99-5.08z" fill="#d3766a"/><path d="M405.98 89.39c.05 0 .06.07.02.08-2.2.92-3.34 2.99-4.13 5.12.65-.83 1.54-1.28 2.64-.51.06.04 0 .13-.06.12-.91-.18-1.56-.02-2.16.71-.43.52-.72 1.17-1.02 1.77-.1.2-.46.1-.39-.13l.02-.05c-.09-2.82 2.06-6.79 5.08-7.11z" fill="#263238"/><path d="M377.38 72.58l5.33 2.1c2.79.69 6.19 1.66 9.84 3.03 3.91 1.46 7.74 3.41 10.83 5.15l5.73 2.27s.26-.66.55-1.77c1.13-4.37 2.66-15.69-9.89-20.65-12.58-4.97-19.35 4.33-21.56 8.25-.55.98-.82 1.62-.82 1.62z" fill="#ffc727"/><path d="M384.15 73.69l2.68 1.06 7.08-13.44c-.73-.05-1.43-.05-2.11 0-5.55 5.3-7.64 12.38-7.64 12.38z" opacity=".1"/><path d="M392.76 76.77l-7.79-2.63s3.52-9.49 9.28-13.48c.48-.34 6.43 1.45 8.02 2.21.8.39.69 1.43.69 1.43-3.01-1.58-9.27 9.7-10.2 12.48z" fill="#ffc727"/><path d="M391.52 76.35l1.25.42c.93-2.78 7.19-14.05 10.2-12.47 0 0 .07-.64-.29-1.1-.68-.45-3.05.26-5.17 3.01-2.12 2.74-4.43 6.23-5.99 10.15z" fill="#fff" opacity=".5"/><path d="M410.34 85.88c-.15.49-.74.64-1.16.36-2.36-1.56-20.91-11.46-32.68-12.68-.51-.05-.66-1.92.38-1.93 3.25 0 10.15 1.69 16.81 4.28 8.15 3.17 13.57 6.55 16.01 8.23.88.6.77 1.29.64 1.74z" fill="#ffc727"/><path d="M409.71 84.15c-2.7-2.29-5.48-3.84-11.03-6.54 0 0-1.28-1.44-1.96-1.98-.67-.54-12-4.93-16.15-5-.23 0-1.11 1.17-1.11 1.17-2.03-.3-2.59-.16-2.59-.16s2.06.08 8.31 1.8 15.53 5.78 19.65 7.94 4.86 2.77 4.86 2.77z" fill="#ffc727"/><path d="M380.02 71.11c.13-.1.28-.18.46-.17 1.56.1 4.04.66 6.25 1.38 4.05 1.31 8.35 2.86 9.56 3.52.53.3 2.3 2.09 2.3 2.09 1.18.46 6.69 3.19 10.5 5.7-2.52-2.02-5.28-3.53-10.4-6.02 0 0-1.28-1.44-1.95-1.99-.67-.54-12-4.92-16.15-5-.11 0-.34.23-.56.49z" fill="#fff" opacity=".7"/><path d="M409.35 76.47s-.56-7.63-6.31-11.11l-2.25 3.06 3.14 1.77 1.5-.55-.2 1.6.82.55.65.87.09.45s1.57.84 2.57 3.37z" fill="#fff" opacity=".2"/><path d="M406.19 117.25c-3.85 2.08-4.98 27.19 1.77 31.17 6.74 3.98 13.29-10.32 11.64-14.95s-9.98-18.08-13.41-16.23z" fill="#ebebeb"/><path d="M419.43 125.95c6.62 6.74 23.78 32.65 25.73 40.09 2.96 11.31-1.19 37.42-4.04 45.23-1.4 3.83-31.04-5.45-29.54-9.55 1.01-2.76 8.14-31.45 8.14-34.71 0-3.26-7.33-19.15-12.6-34.11-4.96-14.07.92-18.54 12.31-6.95z" fill="#d3766a"/><path fill="#ffc727" d="M375.56 235.5h72.91v2.87h-72.91z"/><path d="M400.44 240.81c2.63 2.07 5.5.12 5.5.12s.83 2.54 3.11 3.74c2.61 1.37 5.89-2.13 5.89-2.13s1.38 2.4 3.91 3.42c2.63 1.06 6.44-1.99 6.44-1.99s2.51 1.53 5.33.84c4.82-1.18 7.19-8.38 8.75-12.94 1.56-4.56 1.69-18.95 2-21.69l-29.19-10.23s-12.79 18.47-13.86 24.09c-.9 4.74-.84 14.46 2.11 16.79z" fill="#d3766a"/><path d="M405.54 240.56c-.25-5.26 1.06-10.32 2.09-15.44.02-.11.2-.08.18.04-1.08 5.08-1.14 10.31-2.02 15.42-.02.14-.24.12-.25-.02zm9.05 1.75c-.02-1.19.35-2.39.64-3.54.31-1.23.65-2.46 1-3.69.71-2.45 1.47-4.88 2.31-7.29.04-.11.21-.08.18.04-.7 2.44-1.37 4.9-1.96 7.36-.3 1.24-.59 2.47-.87 3.71-.26 1.15-.44 2.39-.95 3.47-.08.16-.34.11-.34-.07zm10.73 1.55c-.06-1.04.44-2.17.75-3.15.35-1.11.69-2.22 1.02-3.33.67-2.23 1.33-4.45 1.92-6.7.03-.11.21-.08.18.04-.59 2.29-1.14 4.58-1.75 6.86-.3 1.12-.6 2.24-.91 3.36-.26.95-.49 2.17-1.09 2.97-.03.04-.11.01-.11-.04z" fill="#263238"/><path fill="#ffc727" d="M371.99 231.06h3.57v55.83h-3.57z"/><path fill="#c7c7c7" d="M420.32 261.83l-2.95-1.03 1.54-.7-.76-1.51 1.53-.71-.76-1.51 1.54-.7-.77-1.51 1.54-.7-.76-1.52 1.53-.69-.76-1.52 1.54-.7-.77-1.51 1.54-.7-.76-1.52 1.53-.7-.76-1.51 1.54-.7-.77-1.51 1.54-.71-.76-1.5 1.54-.71-.77-1.51 1.54-.7-.77-1.51 1.54-.71-.76-1.5 1.54-.71-.77-1.51 1.54-.7-.76-1.51 1.53-.71-.76-1.5 1.54-.71-.77-1.51 1.54-.7-.76-1.51 1.53-.7-.76-1.51 1.54-.71-.77-1.5 1.54-.71-.76-1.51 1.53-.7-.76-1.51 1.54-.71-.77-1.5 1.54-.71-.76-1.51 1.53-.7-.76-1.51 1.54-.7-.77-1.51 2.95 1.02-20.11 57.55z"/><path fill="#37474f" d="M444.765 192.05l-4.285 12.264-2.964-1.036 4.285-12.263z"/><path d="M420.32 261.83l.78-2.24 10.98 3.84a2.07 2.07 0 002.64-1.27l17.57-50.27a2.07 2.07 0 00-1.27-2.64l-10.95-3.83.78-2.24 10.95 3.83a4.46 4.46 0 012.73 5.66l-17.57 50.27a4.46 4.46 0 01-5.66 2.73l-10.98-3.84z" fill="#263238"/><path fill="#ffc727" d="M448.29 231.06h3.57v55.83h-3.57z"/><path d="M396.318 273.804l-4.304 1.208a2.5 2.5 0 01-3.082-1.732l-6.744-24.042 9.118-2.558 6.744 24.042a2.5 2.5 0 01-1.732 3.082z" fill="#37474f"/><path fill="#37474f" d="M389.817 247.098l-6.143 1.723-.684-2.436 6.143-1.723z"/><path fill="#ebebeb" d="M387.03 245.29l-1.954.549-7.367-26.246 1.954-.549zm-10.95-27.75s.06-4.37.19-4.41l.65-.18h.01l.65-.18c.13-.04 2.46 3.66 2.46 3.66l-.36 2.58-1.94.54-1.65-2.02z"/><path fill="#263238" d="M396.896 269.933l-1.589.446-5.734-20.441 1.589-.446zm-2.955.852l-1.588.445-5.734-20.44 1.588-.446zm-2.953.804l-1.589.445-5.734-20.44 1.589-.446z"/><path d="M397.67 217.469l4.465.222a2.5 2.5 0 012.372 2.621l-1.241 24.94-9.459-.472 1.242-24.939a2.5 2.5 0 012.621-2.372z" fill="#455a64"/><path fill="#37474f" d="M395.357 244.87l6.372.317-.126 2.527-6.372-.317z"/><path fill="#ebebeb" d="M397.4 247.498l2.028.101-1.356 27.226-2.027-.1zm1.56 29.802s-1.45 4.13-1.58 4.12l-.67-.03h-.01l-.67-.03c-.13 0-1.17-4.26-1.17-4.26l1.17-2.33 2.01.1.93 2.44z"/><path fill="#263238" d="M395.86 221.011l1.648.082-1.06 21.204-1.647-.082zm3.069.153l1.648.082-1.06 21.204-1.647-.082zm3.101.105l1.648.082-1.056 21.204-1.648-.082zm18.153 50.476l-8.1.978-6.062-50.236 8.101-.978z"/><path fill="#c7c7c7" d="M415.758 226.65l-10.097 1.218-1.219-10.097 10.097-1.218zm-1.158-9.61s9.62-6.92 14.64-7.53l2.1 17.42-15.64-.77-1.1-9.12z"/><path d="M430.2 217.56l-6.52 8.99h-.01l-3.95-.2 9.9-13.62.58 4.83zm-1.71-7.92l-12.03 16.55-.76-.04-.18-1.49 10.28-14.16c.95-.39 1.87-.7 2.69-.87zm-4.81 1.85L415.32 223l-.15-1.21 6.85-9.43c.55-.3 1.1-.6 1.66-.87z" opacity=".2" fill="#fff"/><path fill="#ebebeb" d="M425.578 217.497l6.15.992-1.549 9.606-6.15-.992z"/><path d="M431.25 221.38s3.53.57 4.16.67c.63.1 3.54-2.37 5.49-2.05 1.95.32.29.05 2.14.35 1.86.3 9.37 3.45 8.59 8.28-.78 4.83-.46 2.88-.46 2.88s-.66-2.71-2.35-3.48c-1.94-.88-3.76.3-4.37 1.6-.76 1.63-1.46 4.22-1.46 4.22l-7.64-1.23s-.23-3.87-.72-5.19c-.49-1.32-4.11-1.6-4.11-1.6l.72-4.45z" fill="#ebebeb"/><path fill="#ebebeb" d="M436.789 232.813l4.749.766-2.762 17.129-4.75-.766z"/><path fill="#263238" d="M434.162 241.767l7.068 1.14-6.148 38.128-7.068-1.14z"/><path fill="#ffc727" d="M375.56 248.38h72.73v38.52h-72.73z"/><path d="M375.56 252.83c3.53-.15 7.05-.22 10.58-.28 3.53-.06 7.05-.05 10.58-.09l10.58.08c3.53.06 7.05.13 10.58.28-3.53.15-7.05.22-10.58.28l-10.58.08c-3.53-.03-7.05-.03-10.58-.09-3.53-.06-7.05-.13-10.58-.28zm17.25 3.5c4.62-.15 9.25-.22 13.87-.28l13.87-.09 13.87.08c4.62.06 9.25.13 13.87.28-4.62.15-9.25.22-13.87.28l-13.87.08-13.87-.09c-4.62-.06-9.25-.13-13.87-.28zm43.14 5.27c-4.26.15-8.51.22-12.77.28l-12.77.09-12.77-.08c-4.26-.06-8.51-.13-12.77-.28 4.26-.15 8.51-.22 12.77-.28l12.77-.08 12.77.09c4.26.06 8.51.13 12.77.28zm-60.39 2.12c2.71-.15 5.41-.22 8.12-.28 2.71-.06 5.41-.05 8.12-.09 2.71.03 5.41.03 8.12.08 2.71.06 5.41.13 8.12.28-2.71.15-5.41.22-8.12.28-2.71.06-5.41.06-8.12.08-2.71-.03-5.41-.03-8.12-.09-2.71-.06-5.41-.13-8.12-.28zm0 2.54l8.12-.18 8.12-.1 16.23-.09 16.24.09 8.12.1 8.12.18-8.12.18-8.12.1-16.24.08-16.23-.08-8.12-.1-8.12-.18zm72.73 2c-2.97.15-5.94.22-8.9.28-2.97.06-5.94.05-8.9.09-2.97-.03-5.94-.03-8.9-.08-2.97-.06-5.94-.13-8.9-.28 2.97-.15 5.94-.22 8.9-.28 2.97-.06 5.94-.06 8.9-.08 2.97.03 5.94.03 8.9.09 2.97.06 5.94.13 8.9.28zm-45.23 3.09c2.74-.15 5.48-.22 8.22-.28 2.74-.06 5.48-.05 8.22-.09 2.74.03 5.48.03 8.22.08 2.74.06 5.48.13 8.22.28-2.74.15-5.48.22-8.22.28-2.74.06-5.48.06-8.22.08-2.74-.03-5.48-.03-8.22-.09s-5.48-.13-8.22-.28zm-27.5 5.71c4.52-.15 9.04-.22 13.55-.28l13.55-.09 13.55.08c4.52.06 9.04.13 13.55.28-4.52.15-9.04.22-13.55.28l-13.55.08-13.55-.09c-4.52-.06-9.04-.13-13.55-.28zm72.73 3.87c-3.03.15-6.06.22-9.09.28-3.03.06-6.06.05-9.09.09-3.03-.03-6.06-.03-9.09-.08-3.03-.06-6.06-.13-9.09-.28 3.03-.15 6.06-.22 9.09-.28 3.03-.06 6.06-.06 9.09-.08 3.03.03 6.06.03 9.09.09 3.03.06 6.06.13 9.09.28zm-72.73 3.25c2.53-.15 5.07-.22 7.6-.28 2.53-.06 5.07-.05 7.6-.09 2.53.03 5.07.03 7.6.08 2.53.06 5.07.13 7.6.28-2.53.15-5.07.22-7.6.28-2.53.06-5.07.06-7.6.08-2.53-.03-5.07-.03-7.6-.09-2.53-.06-5.07-.13-7.6-.28z" opacity=".1"/><path d="M406.61 132.03c-3.98-11.37-2.98-20.48 8.13-11.52 14.22 11.48 28.03 32.96 28.03 32.96l-27.03 7.29s-5.14-17.36-9.12-28.73z" fill="#ebebeb"/><path fill="#dbdbdb" d="M414.34 163.49l30.57-7.57-.98-.81 1.15-1.74-.75-.62-.7-2.59-30.29 8.62 1.04.86-.71 1.69 1.04.67-.37 1.49z"/><g fill="#263238"><path d="M415 158.3c-2.87-7.14-5.09-14.49-6.65-22.03 2.88 7.14 5.09 14.49 6.65 22.03z"/><path d="M408.19 139.51c1.09 1.29 1.83 2.64 2.25 4.28a6.231 6.231 0 01-2.25-4.28z"/></g><path d="M201.04 459.43c-2.59.81-75.93-.77-78.69-2.59-1.04-.68-1.44-11.39-1.55-24.32-.03-2.8-.03-5.67-.02-8.61 0-3.47 2.42-37.24 2.42-37.24l47.04.88-1.74 37.24-.41 8.6s27.81 13.17 30.62 15.5c2.8 2.32 4.9 9.74 2.33 10.54z" fill="#ad6359"/><path d="M201.04 459.44c-2.59.8-75.93-.77-78.7-2.59-1.04-.68-1.44-11.39-1.54-24.33-.03-2.79-.03-5.67-.02-8.61 0-.63.09-2.26.21-4.5h47.76l-.25 5.38-.41 8.61s27.82 13.16 30.62 15.5c2.79 2.32 4.9 9.74 2.33 10.54z" fill="#ebebeb"/><path d="M202.14 457.29v5.59c0 .58-.47 1.05-1.06 1.05h-.34c-.5 0-.9-.36-1.03-.84-.37-1.33-1.6-2.32-3.06-2.32s-2.7.98-3.07 2.32c-.13.48-.53.84-1.03.84h-1.6c-.5 0-.9-.36-1.03-.84-.37-1.33-1.6-2.32-3.06-2.32s-2.69.98-3.06 2.32c-.13.48-.53.84-1.03.84h-1.6c-.5 0-.9-.36-1.03-.84-.37-1.33-1.6-2.32-3.06-2.32s-2.7.98-3.07 2.32c-.13.48-.53.84-1.03.84h-1.6c-.5 0-.9-.36-1.03-.84-.37-1.33-1.6-2.32-3.06-2.32s-2.69.98-3.06 2.32c-.13.48-.53.84-1.03.84h-1.6c-.5 0-.9-.36-1.03-.84-.37-1.33-1.6-2.32-3.06-2.32s-2.7.98-3.07 2.32c-.13.48-.53.84-1.03.84h-1.6c-.5 0-.9-.36-1.03-.84-.37-1.33-1.6-2.32-3.06-2.32s-2.69.98-3.06 2.32c-.13.48-.53.84-1.03.84h-1.6c-.5 0-.9-.36-1.03-.84-.37-1.33-1.6-2.32-3.06-2.32s-2.7.98-3.07 2.32c-.13.48-.53.84-1.03.84h-1.6c-.5 0-.9-.36-1.03-.84-.37-1.33-1.6-2.32-3.06-2.32s-2.69.98-3.06 2.32c-.13.48-.53.84-1.03.84h-1.14c-.58 0-1.06-.47-1.06-1.05v-5.59c0-.58.47-1.05 1.06-1.05h78.28c.58 0 1.06.47 1.06 1.05z" fill="#ffc727"/><path d="M202.14 457.29v5.59c0 .58-.47 1.05-1.06 1.05h-.34c-.5 0-.9-.36-1.03-.84-.37-1.33-1.6-2.32-3.06-2.32s-2.7.98-3.07 2.32c-.13.48-.53.84-1.03.84h-1.6c-.5 0-.9-.36-1.03-.84-.37-1.33-1.6-2.32-3.06-2.32s-2.69.98-3.06 2.32c-.13.48-.53.84-1.03.84h-1.6c-.5 0-.9-.36-1.03-.84-.37-1.33-1.6-2.32-3.06-2.32s-2.7.98-3.07 2.32c-.13.48-.53.84-1.03.84h-1.6c-.5 0-.9-.36-1.03-.84-.37-1.33-1.6-2.32-3.06-2.32s-2.69.98-3.06 2.32c-.13.48-.53.84-1.03.84h-1.6c-.5 0-.9-.36-1.03-.84-.37-1.33-1.6-2.32-3.06-2.32s-2.7.98-3.07 2.32c-.13.48-.53.84-1.03.84h-1.6c-.5 0-.9-.36-1.03-.84-.37-1.33-1.6-2.32-3.06-2.32s-2.69.98-3.06 2.32c-.13.48-.53.84-1.03.84h-1.6c-.5 0-.9-.36-1.03-.84-.37-1.33-1.6-2.32-3.06-2.32s-2.7.98-3.07 2.32c-.13.48-.53.84-1.03.84h-1.6c-.5 0-.9-.36-1.03-.84-.37-1.33-1.6-2.32-3.06-2.32s-2.69.98-3.06 2.32c-.13.48-.53.84-1.03.84h-1.14c-.58 0-1.06-.47-1.06-1.05v-5.59c0-.58.47-1.05 1.06-1.05h78.28c.58 0 1.06.47 1.06 1.05z" opacity=".2"/><path d="M201.26 459.55c-1.68.52-32.93.05-55.66-.84-5.26-.21-10.07-.44-13.95-.68-5.35-.35-8.93-.7-9.51-1.09-1.28-.85-1.6-16.55-1.59-33.11l47.99.89-.41 8.65s27.97 13.24 30.8 15.58c2.81 2.34 4.93 9.79 2.34 10.61z" fill="#ffc727"/><path d="M201.26 459.55c-1.68.52-32.93.05-55.66-.84-5.26-.21-10.07-.44-13.95-.68-5.35-.35-8.93-.7-9.51-1.09-1.28-.85-1.6-16.55-1.59-33.11l47.99.89-.41 8.65s27.97 13.24 30.8 15.58c2.81 2.34 4.93 9.79 2.34 10.61z" fill="#ffc727"/><path d="M201.26 459.55c-1.68.52-32.93.05-55.66-.84-5.26-.21-10.07-.44-13.95-.68-5.35-.35-8.93-.7-9.51-1.09-1.28-.85-1.6-16.55-1.59-33.11l47.99.89-.41 8.65s27.97 13.24 30.8 15.58c2.81 2.34 4.93 9.79 2.34 10.61z" opacity=".5"/><g fill="#ffc727"><path d="M200.26 456.58c-12.36-.57-62.25-1.69-74.51-1.32-.1 0-.1.07 0 .08 12.23.83 62.13 1.55 74.5 1.44.26 0 .26-.19 0-.2zm-30.33-25.93c-4.85-1.01-10.81-.39-14.6 2.99-.15.13.04.34.2.29 4.83-1.41 9.34-2.29 14.37-2.67.35-.03.38-.54.03-.61zm3.46 2.2c-4.85-1.01-10.81-.39-14.6 2.99-.15.13.04.34.2.29 4.83-1.41 9.34-2.29 14.37-2.67.35-.03.38-.54.03-.61zm3.47 2.19c-4.85-1.01-10.81-.39-14.6 2.99-.15.13.04.34.2.29 4.83-1.41 9.33-2.29 14.37-2.67.35-.03.38-.54.03-.61zm3.46 2.19c-4.85-1.01-10.81-.39-14.6 2.99-.15.13.04.34.2.29 4.83-1.41 9.34-2.29 14.37-2.67.35-.03.38-.54.03-.61z"/><path d="M179.15 419.6c-1.86-2.67-5.44-1.57-7.51.1-3.35 2.69-6.32 6.95-7.73 10.98-.03.1.03.16.11.18 0 .37.33.77.75.62 4.05-1.4 8.55-2.4 12.05-5 2.04-1.52 4.08-4.35 2.33-6.88zm-8.67 8.5c-1.97.74-3.97 1.37-5.92 2.18 1.51-2.14 2.93-4.33 4.66-6.32.83-.95 1.69-1.9 2.64-2.73 1.47-1.29 7.27-3.97 6.29 1.35-.54 2.93-5.31 4.63-7.67 5.51z"/><path d="M151.57 429.14c3.97 1.8 8.58 1.81 12.84 2.31.44.05.67-.41.6-.77.07-.03.13-.11.07-.2-2.24-3.64-6.05-7.16-9.9-9.08-2.37-1.18-6.11-1.5-7.36 1.51-1.17 2.85 1.43 5.18 3.74 6.23zm-2.12-3.52c-2.09-4.99 4.14-3.61 5.86-2.67 1.1.6 2.15 1.36 3.16 2.1 2.11 1.57 3.96 3.41 5.9 5.18-2.07-.38-4.16-.57-6.25-.87-2.49-.36-7.52-.99-8.67-3.74z"/></g><path d="M155.34 459.05c-3.34-.11-6.62-.21-9.75-.34-5.26-.21-10.07-.44-13.95-.68-5.34-.34-8.93-.7-9.51-1.08-1.05-.69-1.46-11.33-1.56-24.24 9.99 7.53 23.58 17.77 34.77 26.35z" opacity=".1"/><path d="M171.87 425.13l-52.37.06s3.06-116.68 2.46-119.61c-1.44-6.99-33.18-117.77-33.18-117.77l54.19 1.08s.7 8.7 1.53 11.94c6.65 26.01 24.36 77.79 27.32 98.18 4.3 29.61.06 126.12.06 126.12z" fill="#37474f"/><path d="M168.91 415.8c-8.71-.22-34.95-1.14-46.56-.28-.09 0-.09.15 0 .17 3.98.65 37.85.47 46.56.35.16 0 .16-.24 0-.24zm-42.58-113.01c-1.67-6.79-14.1-49.11-17.9-62.47-3.8-13.36-7.37-26.79-10.65-40.28-.42-1.71-.84-3.42-1.29-5.12-.04-.14-.24-.08-.22.06 1.25 6.79 2.91 13.53 4.51 20.25 1.6 6.73 3.3 13.43 5.09 20.1a828.02 828.02 0 0011.79 39.97c2.13 6.59 5.64 20.12 7.51 26.79 1.86 6.66-1.18 107.12-.99 108.89.05.5.78.51.79 0 .24-12.89 3-101.48 1.35-108.19z" fill="#263238"/><path d="M129.7 188.55l-11.41 103.31s-27.57-97.23-29.44-103.75c-.06-.21-.08-.31-.08-.31l40.93.75z" opacity=".1"/><path d="M141.76 459.43c-2.59.81-75.93-.77-78.69-2.59-1.04-.68-1.44-11.39-1.55-24.32-.03-2.8-.03-5.67-.02-8.61 0-3.47 2.42-37.24 2.42-37.24l47.04.88-1.74 37.24-.41 8.6s27.81 13.17 30.62 15.5c2.8 2.32 4.9 9.74 2.33 10.54z" fill="#ad6359"/><path d="M141.77 459.44c-2.59.8-75.93-.77-78.7-2.59-1.04-.68-1.44-11.39-1.54-24.33-.03-2.79-.03-5.67-.02-8.61 0-.63.09-2.26.21-4.5h47.76l-.25 5.38-.41 8.61s27.82 13.16 30.62 15.5c2.79 2.32 4.9 9.74 2.33 10.54z" fill="#ebebeb"/><path d="M142.86 457.29v5.59c0 .58-.47 1.05-1.06 1.05h-.34c-.5 0-.9-.36-1.03-.84-.37-1.33-1.6-2.32-3.06-2.32s-2.7.98-3.07 2.32c-.13.48-.53.84-1.03.84h-1.6c-.5 0-.9-.36-1.03-.84-.37-1.33-1.6-2.32-3.06-2.32s-2.69.98-3.06 2.32c-.13.48-.53.84-1.03.84h-1.6c-.5 0-.9-.36-1.03-.84-.37-1.33-1.6-2.32-3.06-2.32s-2.7.98-3.07 2.32c-.13.48-.53.84-1.03.84h-1.6c-.5 0-.9-.36-1.03-.84-.37-1.33-1.6-2.32-3.06-2.32s-2.69.98-3.06 2.32c-.13.48-.53.84-1.03.84h-1.6c-.5 0-.9-.36-1.03-.84-.37-1.33-1.6-2.32-3.06-2.32s-2.7.98-3.07 2.32c-.13.48-.53.84-1.03.84h-1.6c-.5 0-.9-.36-1.03-.84-.37-1.33-1.6-2.32-3.06-2.32s-2.69.98-3.06 2.32c-.13.48-.53.84-1.03.84h-1.6c-.5 0-.9-.36-1.03-.84-.37-1.33-1.6-2.32-3.06-2.32s-2.7.98-3.07 2.32c-.13.48-.53.84-1.03.84h-1.6c-.5 0-.9-.36-1.03-.84-.37-1.33-1.6-2.32-3.06-2.32s-2.69.98-3.06 2.32c-.13.48-.53.84-1.03.84h-1.14c-.58 0-1.06-.47-1.06-1.05v-5.59c0-.58.47-1.05 1.06-1.05h78.28c.58 0 1.06.47 1.06 1.05z" fill="#ffc727"/><path d="M142.86 457.29v5.59c0 .58-.47 1.05-1.06 1.05h-.34c-.5 0-.9-.36-1.03-.84-.37-1.33-1.6-2.32-3.06-2.32s-2.7.98-3.07 2.32c-.13.48-.53.84-1.03.84h-1.6c-.5 0-.9-.36-1.03-.84-.37-1.33-1.6-2.32-3.06-2.32s-2.69.98-3.06 2.32c-.13.48-.53.84-1.03.84h-1.6c-.5 0-.9-.36-1.03-.84-.37-1.33-1.6-2.32-3.06-2.32s-2.7.98-3.07 2.32c-.13.48-.53.84-1.03.84h-1.6c-.5 0-.9-.36-1.03-.84-.37-1.33-1.6-2.32-3.06-2.32s-2.69.98-3.06 2.32c-.13.48-.53.84-1.03.84h-1.6c-.5 0-.9-.36-1.03-.84-.37-1.33-1.6-2.32-3.06-2.32s-2.7.98-3.07 2.32c-.13.48-.53.84-1.03.84h-1.6c-.5 0-.9-.36-1.03-.84-.37-1.33-1.6-2.32-3.06-2.32s-2.69.98-3.06 2.32c-.13.48-.53.84-1.03.84h-1.6c-.5 0-.9-.36-1.03-.84-.37-1.33-1.6-2.32-3.06-2.32s-2.7.98-3.07 2.32c-.13.48-.53.84-1.03.84h-1.6c-.5 0-.9-.36-1.03-.84-.37-1.33-1.6-2.32-3.06-2.32s-2.69.98-3.06 2.32c-.13.48-.53.84-1.03.84h-1.14c-.58 0-1.06-.47-1.06-1.05v-5.59c0-.58.47-1.05 1.06-1.05h78.28c.58 0 1.06.47 1.06 1.05z" opacity=".2"/><path d="M141.98 459.55c-1.68.52-32.93.05-55.66-.84-5.26-.21-10.07-.44-13.95-.68-5.35-.35-8.93-.7-9.51-1.09-1.28-.85-1.6-16.55-1.59-33.11l47.99.89-.41 8.65s27.97 13.24 30.8 15.58c2.81 2.34 4.93 9.79 2.34 10.61z" fill="#ffc727"/><path d="M141.98 459.55c-1.68.52-32.93.05-55.66-.84-5.26-.21-10.07-.44-13.95-.68-5.35-.35-8.93-.7-9.51-1.09-1.28-.85-1.6-16.55-1.59-33.11l47.99.89-.41 8.65s27.97 13.24 30.8 15.58c2.81 2.34 4.93 9.79 2.34 10.61z" fill="#ffc727"/><path d="M141.98 459.55c-1.68.52-32.93.05-55.66-.84-5.26-.21-10.07-.44-13.95-.68-5.35-.35-8.93-.7-9.51-1.09-1.28-.85-1.6-16.55-1.59-33.11l47.99.89-.41 8.65s27.97 13.24 30.8 15.58c2.81 2.34 4.93 9.79 2.34 10.61z" opacity=".5"/><g fill="#ffc727"><path d="M140.99 456.58c-12.36-.57-62.25-1.69-74.51-1.32-.1 0-.1.07 0 .08 12.23.83 62.13 1.55 74.5 1.44.26 0 .26-.19 0-.2zm-30.34-25.93c-4.85-1.01-10.81-.39-14.6 2.99-.15.13.04.34.2.29 4.83-1.41 9.34-2.29 14.37-2.67.35-.03.38-.54.03-.61zm3.47 2.2c-4.85-1.01-10.81-.39-14.6 2.99-.15.13.04.34.2.29 4.83-1.41 9.34-2.29 14.37-2.67.35-.03.38-.54.03-.61zm3.46 2.19c-4.85-1.01-10.81-.39-14.6 2.99-.15.13.04.34.2.29 4.83-1.41 9.33-2.29 14.37-2.67.35-.03.38-.54.03-.61zm3.47 2.19c-4.85-1.01-10.81-.39-14.6 2.99-.15.13.04.34.2.29 4.83-1.41 9.34-2.29 14.37-2.67.35-.03.38-.54.03-.61z"/><path d="M119.88 419.6c-1.86-2.67-5.44-1.57-7.51.1-3.35 2.69-6.32 6.95-7.73 10.98-.03.1.03.16.11.18 0 .37.33.77.75.62 4.05-1.4 8.55-2.4 12.05-5 2.04-1.52 4.08-4.35 2.33-6.88zm-8.67 8.5c-1.97.74-3.97 1.37-5.92 2.18 1.51-2.14 2.93-4.33 4.66-6.32.83-.95 1.69-1.9 2.64-2.73 1.47-1.29 7.27-3.97 6.29 1.35-.54 2.93-5.31 4.63-7.67 5.51z"/><path d="M92.3 429.14c3.97 1.8 8.58 1.81 12.84 2.31.44.05.67-.41.6-.77.07-.03.13-.11.07-.2-2.24-3.64-6.05-7.16-9.9-9.08-2.37-1.18-6.11-1.5-7.36 1.51-1.17 2.85 1.43 5.18 3.74 6.23zm-2.12-3.52c-2.09-4.99 4.14-3.61 5.86-2.67 1.1.6 2.15 1.36 3.16 2.1 2.11 1.57 3.96 3.41 5.9 5.18-2.07-.38-4.16-.57-6.25-.87-2.49-.36-7.52-.99-8.67-3.74z"/></g><path d="M112.78 425.24l-53.01-1s12.17-180.79 10.39-191.16c-.27-1.59-1.87-7.2-1.25-12.96 1.39-12.94 5.12-31.23 6.09-32.5l59.47.98s-4.81 25.25-6.83 31c0 0-6.86 3.12-9.29 4.46l-5.56 201.19z" fill="#37474f"/><g fill="#263238"><path d="M111.28 415.62c-8.21-.37-4.7-.38-12.92-.65-4.02-.13-30.44-.99-34.21-.46-.08.01-.09.15 0 .17 3.74.71 30.18 1.11 34.2 1.17 8.22.12 4.71 0 12.93.02.15 0 .16-.23 0-.24zM78.73 232.56c-.31-3.89-.87-7.75-1.22-11.63-.71-7.81.02-15.58 1.84-23.2.03-.14-.19-.2-.22-.06-1.41 6.73-2.66 13.45-2.45 20.35.21 6.84 1.3 13.61 1.28 20.47-.02 6.95-.69 13.88-1.27 20.79-.58 6.96-1.15 13.92-1.73 20.88-2.32 27.97-5 87.31-5.6 95.12-.61 7.95-1.53 25.26-1.97 33.21-.04.69.99.66 1.06 0 1.45-14.03 6.37-108.88 7.46-122.79.54-6.96 1.07-13.92 1.6-20.87.53-6.93 1.17-13.86 1.4-20.81.13-3.81.12-7.64-.18-11.44zm48.65-13.53c-4.86 1.67-9.56 4.05-14.05 6.54-.18.1-.06.37.13.29 4.73-2.03 9.56-3.98 14.17-6.27.36-.18.12-.69-.26-.56zm1.64-30.02c-.01-.15-.3-.18-.3-.02.01 5.18-.37 9.73-.86 14.57-.23 2.25-2.25 14.66-6.47 13.78-.71-.15-1.06-.79-1.17-1.77-.13-1.18.36-2.63.58-3.81.48-2.6.87-5.21 1.13-7.83.48-4.9.52-9.8-.1-14.68-.02-.16-.27-.15-.27.02-.03 6.78-.25 13.55-1.38 20.27-.54 3.23-2.33 8.1 1.33 8.58 3.73.49 6.18-7.66 6.65-9.89 1.3-6.22 1.38-12.93.88-19.21z"/><path d="M121.5 217.63c-.38.9-.69 1.85-.95 2.79-.2.73-.48 1.53-.39 2.3.02.15.21.16.29.06.5-.63.71-1.49.98-2.23.32-.86.66-1.72.96-2.59.2-.58-.65-.88-.89-.32z"/></g><path d="M130.72 122.07c10.41 7.5 43.74 37.67 45.85 42.69 2.51 5.98-7.51 25.01-12.86 24.55-13.81-1.21-37.43-44.35-46.5-63.12-4.55-9.41-3.94-16.67 13.51-4.12z" fill="#ad6359"/><path d="M138.22 164.49l23.75-17.38s-20.15-19.41-35.41-29.44c-12.91-8.48-17.47-2.92-12.15 7.25 7 13.38 23.81 39.56 23.81 39.56z" fill="#ebebeb"/><path fill="#dbdbdb" d="M137.81 167.52l26.99-18.81-1.2-.45.51-2.02-.91-.34-1.52-2.2-26.37 19.71 1.26.47-.11 1.83 1.2.28.15 1.53z"/><path d="M160.79 116.87c2.99-3.28 26.66 14.34 26.19 20.85-1.73 23.95-9.08 44.28-13.45 48.49-5.04 4.86-15.03 4.45-18.99-3.84-5.24-10.94-5.34-52.82 6.25-65.51z" fill="#ad6359"/><path d="M151.98 168.86c-2.66-13.27.78-31.94.78-31.97 0-.26.34-.35.35-.2.09 2.65-1.71 22.24-.77 32.07 0 .09-.34.2-.36.11z" fill="#263238"/><path d="M192.02 120.2c-.4 6.94-6.77 20.81-9.59 23.57-2.82 2.76-26.77-7.29-27.82-11.2-1.05-3.91 2.11-27.17 6.85-32.45 4.74-5.27 30.97 12.88 30.56 20.07z" fill="#ad6359"/><path d="M154.45 128.51s-2.76-8.61-7.59-14.95c-4.06-5.33-10.69-12.78-7.9-15.07 5.71-4.7 22.24 13.89 22.24 13.89s5.97 9.37.72 14.53c-3.29 3.24-7.47 1.59-7.47 1.59z" fill="#ad6359"/><path fill="#ffc727" d="M80.23 73.78L68.85 96.7l150.27 62.35 11.39-22.92L80.23 73.78z"/><path opacity=".4" d="M80.23 73.78L68.85 96.7l150.27 62.35 11.39-22.92L80.23 73.78z"/><path fill="#ffc727" d="M68.85 96.7l-2.37 4.78 150.27 62.34 2.37-4.77L68.85 96.7z"/><path opacity=".6" d="M68.85 96.7l-2.37 4.78 150.27 62.34 2.37-4.77L68.85 96.7z"/><path d="M76.98 80.32c6.68 2.95 13.39 5.83 20.09 8.71l20.16 8.56 20.21 8.42 10.13 4.17 10.15 4.1-10.03-4.38-10.06-4.32-20.16-8.55-20.21-8.42c-6.75-2.78-13.5-5.56-20.28-8.27zm30.89 16.32c4.51 2 9.05 3.93 13.59 5.86l13.66 5.7 13.71 5.57 6.88 2.74 6.9 2.68-6.78-2.96-6.81-2.9-13.66-5.7-13.71-5.57c-4.58-1.83-9.16-3.66-13.77-5.42zm-25.24-5.37c3.85 1.74 7.73 3.43 11.61 5.1l11.67 4.95 11.73 4.81 5.88 2.36c1.97.77 3.93 1.55 5.91 2.3-1.92-.88-3.86-1.72-5.79-2.58l-5.82-2.52-11.67-4.95-11.73-4.81c-3.92-1.58-7.84-3.15-11.79-4.66zm-10.06-2.18c2.11 1.02 4.25 1.98 6.39 2.92 2.14.95 4.3 1.85 6.46 2.77 2.17.88 4.33 1.78 6.51 2.64l3.28 1.27c1.1.4 2.19.83 3.3 1.21-1.05-.52-2.12-.99-3.18-1.49l-3.21-1.43c-2.14-.95-4.3-1.85-6.46-2.77-2.17-.88-4.33-1.78-6.51-2.64-2.18-.86-4.36-1.7-6.57-2.49zm53.01 25.15c4.92 2.12 9.88 4.17 14.84 6.22l14.92 6.07 14.98 5.94 7.51 2.92 7.53 2.86-7.41-3.14-7.44-3.08-14.91-6.07-14.97-5.93c-5-1.96-10.01-3.9-15.04-5.79zm55.02 17.53c2.66 1.29 5.35 2.51 8.05 3.72 2.69 1.21 5.41 2.38 8.11 3.57 2.72 1.15 5.44 2.32 8.17 3.44l4.11 1.67c1.38.54 2.75 1.09 4.13 1.61-1.33-.65-2.67-1.26-4.01-1.89l-4.04-1.83c-2.69-1.21-5.41-2.38-8.11-3.57-2.72-1.14-5.44-2.32-8.17-3.44-2.73-1.12-5.47-2.24-8.24-3.29zm14.05-6.06c2.8 1.28 5.62 2.49 8.45 3.69 2.83 1.2 5.67 2.36 8.51 3.54 2.85 1.13 5.7 2.29 8.56 3.41l4.3 1.66c1.44.53 2.88 1.08 4.32 1.6-1.4-.64-2.81-1.25-4.21-1.88l-4.23-1.82c-2.83-1.2-5.67-2.36-8.51-3.54-2.85-1.13-5.7-2.3-8.56-3.41-2.86-1.11-5.73-2.21-8.62-3.25zm-26.84-6.43c4.19 1.92 8.41 3.77 12.63 5.61l12.69 5.46 12.75 5.33 6.39 2.62 6.42 2.56-6.3-2.84-6.33-2.78-12.69-5.46-12.75-5.33c-4.26-1.75-8.52-3.5-12.81-5.18zm-96.6-27.33c4.03 1.85 8.09 3.64 12.15 5.41l12.21 5.26 12.27 5.13 6.16 2.52c2.06.82 4.11 1.66 6.18 2.46-2.01-.93-4.04-1.82-6.06-2.74l-6.09-2.68-12.22-5.26-12.27-5.13c-4.1-1.69-8.2-3.36-12.34-4.98zm71.34 11.79c3.47 1.54 6.97 3.02 10.48 4.49 3.5 1.47 7.03 2.89 10.54 4.34 3.53 1.4 7.05 2.83 10.59 4.21l5.32 2.06c1.78.66 3.55 1.35 5.34 2-1.73-.78-3.48-1.52-5.23-2.28l-5.25-2.22c-3.5-1.47-7.03-2.89-10.54-4.34-3.53-1.4-7.05-2.83-10.59-4.21s-7.08-2.75-10.65-4.05z" opacity=".1"/><path fill="#ffc727" d="M95.41 66.34L80.43 82.3l141.44 78.92 14.98-15.97L95.41 66.34z"/><path opacity=".4" d="M95.41 66.34L80.43 82.3l141.44 78.92 14.98-15.97L95.41 66.34z"/><path fill="#ffc727" d="M80.43 82.3l-3.12 3.33 141.44 78.91 3.12-3.32L80.43 82.3z"/><path opacity=".6" d="M80.43 82.3l-3.12 3.33 141.44 78.91 3.12-3.32L80.43 82.3z"/><path d="M93.6 72.18c6.04 3.61 12.12 7.16 18.21 10.69l18.31 10.52 18.39 10.37 9.23 5.13 9.26 5.07-9.09-5.38-9.12-5.31-18.31-10.52-18.39-10.37c-6.15-3.43-12.3-6.85-18.49-10.2zm27.7 19.17c4.08 2.46 8.19 4.84 12.32 7.22 4.12 2.38 8.27 4.69 12.41 7.05l12.49 6.9 6.28 3.4c2.11 1.11 4.2 2.24 6.31 3.33-2.03-1.23-4.09-2.43-6.14-3.64l-6.18-3.57-12.41-7.04c-4.17-2.3-8.31-4.62-12.49-6.9-4.18-2.27-8.37-4.53-12.59-6.72zm-23.55-8.04c3.47 2.14 6.98 4.2 10.5 6.26 3.52 2.06 7.06 4.06 10.6 6.09 3.56 1.98 7.1 3.99 10.68 5.94l5.37 2.92c1.8.95 3.59 1.92 5.41 2.85-1.73-1.08-3.49-2.11-5.23-3.17l-5.27-3.1c-3.52-2.06-7.06-4.06-10.6-6.09-3.56-1.98-7.1-3.99-10.68-5.94-3.57-1.95-7.16-3.9-10.78-5.77zm-9.38-3.24c1.89 1.24 3.82 2.42 5.76 3.58 1.93 1.17 3.89 2.29 5.85 3.41 1.97 1.1 3.94 2.21 5.94 3.26l3 1.58c1.01.5 2.01 1.03 3.04 1.51-.94-.63-1.91-1.22-2.86-1.82l-2.9-1.76c-1.93-1.17-3.89-2.29-5.85-3.41-1.97-1.1-3.94-2.21-5.94-3.26-1.99-1.06-3.99-2.11-6.03-3.09zm47.86 30.17c4.46 2.61 8.96 5.16 13.46 7.7l13.58 7.54 13.66 7.39 6.86 3.64c2.3 1.19 4.59 2.4 6.9 3.57-2.23-1.32-4.48-2.59-6.72-3.89l-6.75-3.82-13.57-7.53-13.65-7.39c-4.57-2.44-9.14-4.86-13.76-7.23zm50.66 23.11c2.39 1.56 4.82 3.05 7.25 4.53 2.43 1.48 4.9 2.91 7.35 4.36 2.48 1.41 4.94 2.84 7.43 4.22l3.75 2.06c1.26.66 2.51 1.35 3.79 1.99-1.19-.79-2.4-1.53-3.61-2.3l-3.64-2.23c-2.43-1.48-4.9-2.91-7.35-4.36-2.48-1.4-4.94-2.84-7.44-4.22-2.49-1.38-4.99-2.75-7.53-4.05zm14.14-4.19c2.52 1.57 5.07 3.06 7.63 4.55 2.56 1.49 5.15 2.92 7.73 4.38 2.6 1.41 5.19 2.85 7.81 4.23l3.94 2.06c1.32.66 2.64 1.35 3.97 1.99-1.25-.79-2.53-1.54-3.8-2.31l-3.84-2.24c-2.56-1.49-5.15-2.92-7.73-4.38-2.61-1.41-5.19-2.85-7.81-4.23-2.62-1.38-5.24-2.76-7.91-4.06zm-24.95-9.24c3.78 2.34 7.59 4.61 11.42 6.87 3.82 2.26 7.68 4.47 11.51 6.7 3.87 2.18 7.72 4.4 11.6 6.55l5.83 3.22c1.96 1.05 3.9 2.13 5.87 3.16-1.88-1.18-3.79-2.31-5.69-3.47l-5.73-3.4c-3.82-2.26-7.68-4.47-11.51-6.7-3.87-2.18-7.72-4.4-11.6-6.55-3.88-2.16-7.77-4.31-11.7-6.38zM86.74 82.65c3.63 2.26 7.3 4.45 10.98 6.62 3.68 2.18 7.39 4.3 11.08 6.45 3.72 2.1 7.43 4.23 11.17 6.31l5.61 3.1c1.88 1.01 3.76 2.04 5.65 3.03-1.81-1.14-3.65-2.23-5.47-3.35l-5.51-3.28c-3.68-2.18-7.39-4.3-11.08-6.45-3.72-2.1-7.43-4.23-11.17-6.31-3.74-2.08-7.48-4.14-11.26-6.14zm66.94 19.49c3.13 1.9 6.31 3.73 9.49 5.55 3.18 1.82 6.39 3.58 9.58 5.38 3.22 1.74 6.43 3.51 9.66 5.23l4.86 2.56c1.63.83 3.25 1.68 4.9 2.49-1.56-.96-3.15-1.87-4.72-2.81l-4.76-2.74c-3.18-1.82-6.39-3.59-9.58-5.38-3.22-1.74-6.43-3.51-9.66-5.23-3.24-1.72-6.48-3.42-9.76-5.06z" opacity=".1"/><path d="M155.79 109.7c1.72 3.26 4.57-.64 4.57-.64s-2.75 6.59.32 9.26c2.97 2.57 6.25-2.26 6.49-2.6-.14.35-2.51 6.47.85 8.84 3.5 2.46 5.96-2.95 6.12-3.3-.03.37-.36 5.31 2.61 6.52 5.1 2.09 6.28-10.51 9.83-13.21 0 0 5.26 5.49 5.44 5.62 0 0 1.37-11.96-2.54-16.55-2.06-2.42-4.72-.97-4.72-.97s.87-3.81-1.72-5.75c-1.33-1-4.11.25-4.11.25s.57-3.08-1.84-4.67c-1.92-1.27-4.41.17-4.41.17s-.83-3.21-3.21-3.87c-4.81-1.35-17.35 13.92-13.67 20.89z" fill="#ad6359"/><path d="M172.25 92.85s-.01-.12-.07-.08c-5.35 4.01-10 10.06-11.99 16.49-.07.21.25.41.36.19 3.32-6.23 6.76-11.5 11.69-16.6zm6.71 4.22c.05-.05-.04-.14-.1-.09-5.49 4.16-10.54 11.12-11.96 18.8-.05.26.17.55.25.25 1.33-5.03 7.35-14.38 11.82-18.95zm-4.74 24.76c1.65-7.31 5.48-13.35 10.3-19 .06-.07-.05-.15-.12-.11-3.11 2.12-5.81 6.04-7.65 9.26-1.76 3.09-2.74 6.23-2.78 9.79 0 .14.22.21.26.06z" fill="#263238"/><path d="M160.25 109.1c-.08.25.38.09.31.34-.29 1.07-1.52 7.7.61 8.81 1.71.89 4.09-.78 4.75-1.79l1.66-2.52-.69 2.95c-.3 1.29-.44 2.69-.3 3.99.13 1.3.61 2.57 1.58 3.25 1 .73 2.22.79 3.18.02.97-.72 1.73-1.93 2.23-3.11l1.4-3.29-.25 3.55c-.07.96-.02 2 .17 2.96s.54 1.89 1.17 2.5c.61.6 1.56.87 2.33.57.81-.3 1.49-1.09 2.07-1.91 1.15-1.67 1.96-3.62 2.86-5.5.44-.95.89-1.9 1.38-2.84.5-.91 1.02-1.88 1.87-2.52-.77.72-1.17 1.71-1.61 2.65-.41.96-.78 1.94-1.15 2.92-.74 1.96-1.5 3.93-2.63 5.78-.59.89-1.26 1.84-2.41 2.37-1.19.53-2.59.13-3.47-.71-.9-.86-1.3-1.99-1.53-3.06-.22-1.1-.29-2.17-.23-3.29l1.15.26c-.58 1.4-1.33 2.69-2.6 3.7-.63.49-1.48.82-2.35.79-.87-.03-1.64-.37-2.3-.84-1.36-1-1.88-2.66-2-4.11-.12-1.5.04-2.94.4-4.39l.98.43c-.88 1.24-3.34 3.41-6.16 2.36-3.47-1.92-.97-9.03-.42-10.3z" fill="#263238"/><path d="M160.37 109.06c-.6.53-1.24.99-1.88 1.26-.63.28-1.27.22-1.73-.12-.47-.33-.78-1-1.02-1.69-.22-.71-.42-1.46-.6-2.25-.23.78-.3 1.6-.19 2.43.12.81.39 1.72 1.2 2.35.42.28.9.44 1.4.43.5-.02.95-.19 1.32-.44.74-.49 1.21-1.21 1.5-1.97z" fill="#263238"/><path d="M70.05 205.64c.18.19 75.85-2.99 75.85-2.99s1.46-9.33-1.31-22.02c-4.96-22.67-16.53-56.1-24.88-66.4-3.26-4.02-14.87-9.35-24.62 2.37-9.05 10.87-18.68 45.53-23.09 68.29-2.23 11.54-1.95 20.76-1.95 20.76z" fill="#ebebeb"/><path d="M148.81 208.25l-14.12.38-6.36-7.7-4.05 8.14s-55.74 2.28-55.86 2.15c0 0 1.34-14.8 3.58-26.34 4.41-22.75 14.04-57.42 23.09-68.29 1.54-1.86 3.14-3.28 4.73-4.36 1.55 4.45 3.79 10.64 4.91 12.81 1.83 3.54 16.41 15.63 16.41 15.63s.88-12.02.29-17.36c-.21-1.91-.84-5.31-1.56-8.86 8.34 10.55 19.78 43.66 24.71 66.18 2.77 12.7 4.23 27.62 4.23 27.62z" fill="#ffc727"/><g fill="#ebebeb"><path d="M144.81 181.67l-72.88 3.55c.03-.12.05-.22.07-.34.32-1.64.66-3.34 1.04-5.1l34.53-1.68 4.7-.23 22.51-1.09 4.7-.23 4.12-.21c.35 1.47.68 2.9.99 4.3.08.35.15.69.22 1.05zm2.63 15.33l-77.87 3.81c.21-1.71.45-3.55.71-5.43l76.35-3.72c.29 1.86.57 3.65.8 5.34z"/><path d="M108.07 162.88c.03-5.89.51-12.03-.17-17.86-2.75-8.72-7.09-21.31-10.39-30.99.08-.07.15-.14.22-.2 4.03 9.52 9.29 21.65 12.75 30.35.82 3.24.73 6.25 1 9.5.41 8.06.62 16.12.77 24.18l.06 3.37-4.89-.07c.05-1.03.09-2.04.13-3.07.21-5.07.38-10.14.51-15.21zm32.06 16.96l-4.83.79c-.15-1.06-.32-2.37-.53-3.87-1.02-7.32-2.63-18.85-3.38-23.78-.65-3.85-.98-7.58-2.11-11.26-1.94-6.49-4.8-15.95-7.27-24.21.77 1.23 1.55 2.61 2.34 4.12 2.64 6.86 5.38 14.03 7.41 19.28 2.17 6.09 3.29 14.29 4.74 20.61l2.96 14.99.65 3.31z"/></g><path d="M121.15 140.67c2.39 8.57 4.65 17.19 6.04 25.99 1.03 11.4 1.1 22.84 1.15 34.28l-.51-7.6c-.57-8.69-.81-17.93-1.58-26.55-.99-7.04-3.7-19.01-5.1-26.11z" fill="#263238"/><path d="M79.52 207.45c-.37.48.3 27.55 2.09 28.35 1.78.81 24.36 1.35 25.86.28s-.23-27.99-.42-28.31c-.19-.32-26.83-1.22-27.52-.32z" fill="#ffc727"/><path d="M107.8 220.31c.33 7.2.48 15.19-.34 15.78-1.5 1.06-24.07.53-25.86-.28-.98-.45-1.61-8.41-1.93-15.64-.26-6.02-.31-12.49-.15-12.72.68-.91 27.32 0 27.51.32.09.15.48 6.55.76 12.54z" opacity=".1"/><path d="M67.3 207.23c-.41-.31.18-10.18 1.43-12.74 0 0 25.23 1.03 45.71.7 15.32-.24 33.57-1.69 33.69-1.27.12.42 1.77 10.7 1.49 11.59-.28.89-24.26 2.28-37.43 2.79-13.17.52-43.54-.04-44.9-1.08z" fill="#ffc727"/><path d="M67.3 207.23c-.41-.31.18-10.18 1.43-12.74 0 0 25.23 1.03 45.71.7 15.32-.24 33.57-1.69 33.69-1.27.12.42 1.77 10.7 1.49 11.59-.28.89-24.26 2.28-37.43 2.79-13.17.52-43.54-.04-44.9-1.08z" opacity=".3"/><g fill="#dbdbdb"><path d="M135.91 193.6c-.95-.39-15.59.04-16.35.51-1.27.8-.66 13.62-.33 13.97.33.35 16.92-.48 17.39-.86.48-.38.24-13.22-.71-13.62zm-.98 12.11c-.37.29-13.84.99-14.1.71-.26-.26-.73-10.18.3-10.8.61-.36 12.49-.74 13.26-.43.77.3.93 10.24.54 10.52z"/><path d="M131.104 199.695l4.646-.19.073 1.778-4.646.19z"/></g><path d="M114.7 201.77c.05.37-.22.71-.59.76a.683.683 0 01-.76-.59c-.05-.37.22-.71.59-.76s.71.22.76.59zm-7.08.18c.05.37-.22.71-.59.76a.683.683 0 01-.76-.59c-.05-.37.22-.71.59-.76s.71.22.76.59z" fill="#263238"/><path d="M82.478 179.718l3.27-.065a2.5 2.5 0 012.549 2.45l.427 21.476-8.268.164-.427-21.475a2.5 2.5 0 012.45-2.55zm-.672 24.003l5.569-.11.044 2.21-5.57.11z" fill="#37474f"/><path fill="#ebebeb" d="M83.75 205.898l1.769-.035.473 23.795-1.77.035z"/><path d="M86.94 231.72s-1.01 3.68-1.13 3.68h-.6l-.59.02c-.12 0-1.28-3.64-1.28-3.64l.87-2.1 1.76-.03.96 2.07z" fill="#ebebeb"/><path fill="#263238" d="M80.832 182.862l1.44-.029.368 18.537-1.44.028zm2.678-.053l1.44-.03.369 18.537-1.44.029zm2.7-.059l1.44-.03.372 18.537-1.44.029z"/><path fill="#c7c7c7" d="M108.628 194.395l-4.78-.015.023-7.45 4.78.015z"/><path d="M103.87 189.15s-2.74 0-3.23-.01c-.49 0-2.38-2.23-3.9-2.24h-1.66c-1.44 0-7.51 1.44-7.52 5.19-.01 3.75 0 2.24 0 2.24s.84-1.97 2.21-2.34c1.57-.42 2.8.69 3.1 1.75.37 1.32.58 3.37.58 3.37l5.93.02s.65-2.9 1.19-3.83c.53-.94 3.31-.7 3.31-.7v-3.45zm-5.63 21.274l-3.68-.012.042-13.29 3.68.012z" fill="#c7c7c7"/><path fill="#263238" d="M99.062 233.817l-5.48-.017.093-29.59 5.48.017z"/><path d="M107.8 220.31c.33 7.2.48 15.19-.34 15.78-1.5 1.06-24.07.53-25.86-.28-.98-.45-1.61-8.41-1.93-15.64l28.13.14z" fill="#ffc727"/><path d="M107.8 220.31c.33 7.2.48 15.19-.34 15.78-1.5 1.06-24.07.53-25.86-.28-.98-.45-1.61-8.41-1.93-15.64l28.13.14z" opacity=".3"/><path d="M92.89 133.36c-4.77 7.31-25.24 32.8-25.58 35.66-.19 1.6 6.59 6.21 6.66 7.33.31 4.56-7.95 41.73-12.32 39.3-5.75-3.2-28.9-32.61-27.79-45.52 1.11-12.91 49.54-49.9 57.7-53.69 7.75-3.6 5.85 9.98 1.32 16.92z" fill="#ad6359"/><path d="M78.76 222.56c3.28-3.06-2.21-5.17-2.21-5.17s8.63 1.13 10.78-3.33c2.07-4.31-4.65-6.62-5.13-6.79.46.06 8.41.89 10.12-3.82 1.77-4.89-5.37-6.06-5.83-6.13.45-.08 6.35-1.27 6.84-5.15.83-6.65-16.36-4.69-20.66-8 0 0 .33-8.66.42-8.92 0 0-1.36 3.58-4.21 4.89-3.53 1.63-6.76 2.76-7.98 4.77-2 3.31.36 5.86.36 5.86s-4.75.19-6.21 3.86c-.74 1.88 1.61 4.75 1.61 4.75s-3.8.32-4.89 3.66c-.88 2.66 1.61 5.12 1.61 5.12s-3.51 2-3.53 5.01c-.05 6.08 21.89 15.95 28.91 9.4z" fill="#ad6359"/><path d="M53.71 208.59c-.07-.04-.14.05-.07.1 6.42 5.01 15.01 8.54 23.2 8.83.27 0 .4-.42.11-.49-8.38-1.91-15.67-4.28-23.23-8.45zm2.82-9.23c-.08-.05-.16.09-.08.15 6.65 5.12 16.43 8.84 25.91 8.06.32-.03.59-.38.21-.37-6.34.04-19.25-4.05-26.04-7.84zm30.61-2.33c-9.12.39-17.44-2.18-25.61-6.04-.11-.05-.17.11-.09.17 3.48 2.98 8.95 4.9 13.33 6.04 4.19 1.09 8.2 1.23 12.39.15.16-.04.18-.33-.01-.32z" fill="#263238"/><path d="M53.14 208.16c-1.58-1.45-2.81-3.4-2.25-5.63.26-1.01.9-1.88 1.76-2.47 1.06-.74 2.67-.79 3.44-.87-1.46-1.75-2.27-4.2-1.1-6.32.54-.98 1.42-1.49 2.48-1.88.57-.21 2.98-.53 3.67-.43-1.2-1-1.86-2.61-1.75-4.16.13-1.81 1.25-3.17 2.73-4.13 1.69-1.1 3.69-1.58 5.57-2.26.98-.35 1.95-.7 2.82-1.28.8-.52 1.45-1.21 2.11-2.58.09-.19.1 0 .04.15-.36.82-.66 1.35-1.18 1.96-.52.62-1.13 1.16-1.79 1.61-1.61 1.11-3.51 1.62-5.24 2.48-1.52.75-2.94 1.82-3.7 3.38-.78 1.61-.45 3.46.61 4.85.06.06.03.18-.1.19-.81.06-2.72.63-3.19.89-.82.43-1.63.96-2.05 1.78-.95 1.85-.53 4.2.64 5.92.04.06-1.93.35-3.28 1.42-.64.51-1.08 1.28-1.33 2.05-.59 1.82-.02 3.93 1.37 5.23.02.02.03.05.03.07v.05c0 .03-.01.05-.03.07s-1.11.68-1.17.7c-.03 0-.04-.04-.02-.06.04-.05.74-.64.9-.72z" fill="#263238"/><path d="M96.92 115.53c7.92.09 5.2 36.9-11.14 37.47-8.26.29.13-37.6 11.14-37.47z" fill="#ebebeb"/><g fill="#263238"><path d="M82.9 150.03c3.55-6.05 8.06-12.21 12.11-17.95-2.98 6.61-7.33 12.53-12.11 17.95z"/><path d="M95.08 134.03c-.75 1.63-2.07 2.97-3.63 3.84 1.12-1.41 2.32-2.61 3.63-3.84z"/></g><path d="M50.44 145.53l19.61 21.94s17.36-21.94 25.85-38.11c7.18-13.68 1.21-17.68-8.4-11.38-12.63 8.27-37.06 27.55-37.06 27.55z" fill="#ebebeb"/><path fill="#dbdbdb" d="M47.39 145.41l21.35 25.03.32-1.23 2.06.3.25-.94 2.05-1.72-22.18-24.33-.35 1.3-1.83.07-.17 1.23-1.5.29z"/><path d="M114.58 123.03c-3.23.64-10.94-4.4-14.37-9.13-.23-.33-.17-4.06-.3-8.61-.09-2.76-.26-5.83-.62-8.62l18.04 2.02s-.98 6.07-.33 10.93c.06.41.15.78.27 1.13.01.05.04.11.05.19.63 2.13 2.31 11.08-2.75 12.09z" fill="#ad6359"/><path d="M117.28 110.76c0 .05.03.11.06.19-.54.14-1.14.25-1.8.32-10.17 1.06-14.28-11.1-15.22-14.47l17.03 1.9s-.98 6.07-.33 10.93c.07.41.16.79.27 1.14z" fill="#263238"/><path d="M95.97 73.06c-1.87 6.27 1.53 24.32 6 28.32 6.48 5.8 17.05 6.3 21.97-1.48 4.77-7.54-.09-30.99-5.08-34.62-7.35-5.35-20.13-1.48-22.89 7.78z" fill="#ad6359"/><g fill="#263238"><path d="M111 84.13s-.09.07-.07.12c.25 1.21.34 2.64-.69 3.24-.03.02-.02.08.02.07 1.31-.43 1.18-2.32.75-3.43z"/><path d="M109.68 83.04c-1.99.2-1.45 4.15.39 3.97 1.81-.18 1.27-4.14-.39-3.97zm8.66-.01s.1.05.11.1c.13 1.23.48 2.62 1.65 2.88.04 0 .04.07 0 .07-1.38 0-1.83-1.85-1.75-3.04z"/><path d="M119.26 81.6c1.95-.42 2.64 3.52.83 3.9-1.78.38-2.47-3.55-.83-3.9zm-11.38-.15c.52-.21.97-.49 1.46-.75.56-.29 1.03-.47 1.34-1.05.17-.31.01-.8-.27-1-.67-.44-1.44-.26-2.12.07-.74.35-1.23.82-1.58 1.56-.34.72.48 1.44 1.17 1.16zm12.62-.31c-.56-.02-1.08-.12-1.63-.19-.62-.08-1.13-.08-1.62-.52-.27-.23-.29-.75-.09-1.03.47-.65 1.26-.74 2.01-.67.82.07 1.43.34 2.02.91.57.56.05 1.52-.69 1.5zm-9.07 14.53c.33.25.68.6 1.13.58.43-.02.91-.28 1.28-.49.04-.02.08.02.06.06-.25.51-.88.9-1.47.88-.57-.02-.91-.46-1.11-.95-.03-.07.06-.11.11-.07zm.79-3.84c.83.97 1.92 1.42 3.04 1.48.5.03 1.02-.02 1.51-.14.1-.02.2-.04.28-.07.09-.02.17-.04.26-.08.14-.04.2-.17.21-.31 0-.05-.01-.09-.03-.13l-.02-.12c-.1-.95-.39-2.37-.39-2.37.37.13 2.23.68 2.14.19-.8-4.05-1.69-8.55-3.34-12.42-.05-.13-.25-.07-.22.06.61 3.92 1.91 7.71 2.59 11.64-.59-.14-1.56-.41-2.05-.33-.13.06.6 2.74.61 3.17v.05c-1.56.42-2.82.1-4.5-.75-.1-.06-.19.04-.1.13z"/></g><path d="M97.08 90.23c2.9.22 4.23-3.61 4.59-5.47.36-1.86-1.82-9.48-1-12.32.83-2.84 3.41-4.84 5.8-4.62 2.4.22 5.92 2.61 7.56 2.13 1.64-.49 1.32-4.19 2.49-4.42 2.56-.51 5.65 5.1 6.67 7.82 0 0-.57-11.91-13.94-10.53-12.19 1.26-14.24 9.05-14.57 12.87-.62 7.31 2.38 14.55 2.38 14.55z" fill="#263238"/><path d="M101.44 88.27s-4.24-5.74-6.85-4.21c-2.61 1.53.68 9.91 3.82 10.99 3.14 1.08 4.2-1.81 4.2-1.81l-1.17-4.97z" fill="#ad6359"/><path d="M95.59 86.44c-.05 0-.06.07-.01.08 2.2.83 3.41 2.82 4.26 4.9-.67-.79-1.56-1.21-2.63-.41-.06.04 0 .13.06.12.89-.21 1.54-.08 2.16.62.44.5.75 1.13 1.07 1.71.11.19.46.08.38-.14l-.02-.05c-.02-2.78-2.28-6.62-5.27-6.82z" fill="#263238"/><path d="M124 70.2l-5.37 1.99c-2.81.62-6.22 1.53-9.9 2.81-3.94 1.38-7.82 3.23-10.94 4.91l-5.78 2.14s-.25-.67-.51-1.78c-1.03-4.39-2.31-15.74 10.35-20.43 12.69-4.69 19.25 4.76 21.37 8.73.53.99.78 1.64.78 1.64z" fill="#ffc727"/><path d="M117.21 71.16l-2.7 1-6.78-13.59c.73-.04 1.43-.02 2.11.04 5.43 5.42 7.36 12.55 7.36 12.55z" opacity=".1"/><path d="M108.53 74.04l7.84-2.46s-3.31-9.57-8.98-13.69c-.48-.35-6.46 1.31-8.07 2.03-.81.37-.72 1.41-.72 1.41 3.05-1.51 9.05 9.9 9.92 12.7z" fill="#ffc727"/><path d="M109.79 73.65l-1.25.39c-.87-2.8-6.88-14.21-9.92-12.7 0 0-.05-.65.31-1.1.69-.44 3.04.33 5.1 3.12s4.29 6.33 5.76 10.28z" fill="#fff" opacity=".5"/><path d="M90.76 82.77c.14.49.72.66 1.15.39 2.39-1.51 21.16-10.99 32.95-11.95.51-.04.7-1.91-.34-1.93-3.25-.08-10.18 1.46-16.91 3.91-8.22 2.99-13.71 6.25-16.19 7.87-.89.58-.8 1.28-.67 1.72z" fill="#ffc727"/><path d="M91.43 81.05c2.75-2.23 5.56-3.72 11.17-6.29 0 0 1.32-1.41 2-1.94s12.1-4.66 16.26-4.64c.23 0 1.08 1.19 1.08 1.19 2.04-.25 2.59-.1 2.59-.1s-2.06.03-8.35 1.62c-6.29 1.58-15.65 5.43-19.82 7.5-4.17 2.08-4.92 2.66-4.92 2.66z" fill="#ffc727"/><path d="M121.4 68.67c-.12-.1-.28-.19-.46-.18-1.56.07-4.06.57-6.28 1.24-4.07 1.22-8.42 2.67-9.63 3.31-.54.28-2.34 2.04-2.34 2.04-1.19.43-6.76 3.04-10.62 5.46 2.56-1.96 5.36-3.42 10.53-5.79 0 0 1.32-1.42 2-1.94.68-.53 12.1-4.66 16.26-4.64.11 0 .33.24.55.5z" fill="#fff" opacity=".7"/><path d="M91.95 73.38s.73-7.62 6.55-10.97l2.19 3.11-3.17 1.7-1.49-.58.17 1.6-.83.53-.67.85-.1.45s-1.59.8-2.65 3.31z" fill="#fff" opacity=".2"/><path d="M117.77 112.5l-1.69 8.89-16.11-11.15-3.09 4.78s15.72 19.29 15.67 18.33l4.25-9.94 5.93 5.7-2.16-13.33-2.8-3.28z" fill="#ebebeb"/><path d="M121.82 121.27c-.54-2.58-.43-2.8-1.09-5.35-.02-.09-.17-.11-.18 0-.17 2.59 1.37 10.05 1.69 12.44l-.03-.02c-.3-.24-5.37-5.01-5.41-4.92-.74 1.57-4.18 8.89-4.31 9.52-2.49-3.07-11.93-14.16-14.77-16.99-.08-.08-.21.01-.14.11 2.28 3.29 14.82 18.25 14.97 18.18.12.07 4.12-8.89 4.37-10.49 1.1 1.02 6.31 6.46 6.28 6.07-.24-2.63-.84-5.97-1.38-8.55z" fill="#263238"/></svg>